<svg xmlns="http://www.w3.org/2000/svg" viewBox="0 0 299.99 85.14"><defs><style>.cls-1{fill:#fff;}</style></defs><g id="Capa_2" data-name="Capa 2"><g id="Elementos"><path class="cls-1" d="M99.85,64.08A20.52,20.52,0,0,1,79,43.53C79,32.36,88.61,23,100.06,23s21.09,9.5,21,20.61C121.07,55.12,111.74,64.1,99.85,64.08Zm5.94-20.49c0-4.52,0-9,0-13.56,0-3.69-2.48-6.32-5.85-6.27s-5.65,2.56-5.66,6.2q0,13.56,0,27.12c0,3.76,2.39,6.31,5.81,6.25s5.68-2.59,5.69-6.18C105.8,52.63,105.79,48.11,105.79,43.59Z"/><path class="cls-1" d="M166.8,85.14H152.5V24.22h14.3Z"/><path class="cls-1" d="M31.89,0V53.46c0,5.4,1.22,6.93,6.63,8.15A17.16,17.16,0,0,1,26.83,63.9c-4.56-.82-7.25-3.88-8.55-8.18a15.06,15.06,0,0,1-.8-4.29c-.06-12.19,0-24.39,0-36.76C25.29,12.77,29.32,7.13,31.89,0Z"/><path class="cls-1" d="M261.43,41.6H247.06c0-3,.16-5.79-.05-8.6a19,19,0,0,0-1.25-5.9c-1-2.5-3.15-3.64-4.91-3.23a5.76,5.76,0,0,0-4,5.45c0,4.67,0,9.34,0,14v6.78c0,6.5,3.49,10.47,10,11.26a48.17,48.17,0,0,0,5.4,0c-5.94,4-15.39,3.5-21.78-.92a20.34,20.34,0,0,1-7.76-23.58,21.41,21.41,0,0,1,21.71-13.83C254.53,24,261.45,31.43,261.43,41.6Z"/><path class="cls-1" d="M58.79,62.62H44.43V24.2H58.79Z"/><path class="cls-1" d="M175.51,24.12h14.37v29c0,5.2,1.34,6.89,6.74,8.12-4.69,2.29-9.19,3.56-13.94,1.6-4.45-1.83-6.67-5.62-6.89-10.15-.38-7.65-.22-15.32-.28-23C175.5,27.93,175.51,26.12,175.51,24.12Z"/><path class="cls-1" d="M200.08,24.13h14.11V62.54H200.08Z"/><path class="cls-1" d="M282.44,24.19V62.52H268.17V24.19Z"/><path class="cls-1" d="M144.72,23.27c-3.48,3.44-3.37,7.86-3.46,12.1-.14,6.48,0,13,.18,19.45.08,3.29.65,6.51,3.31,9.07C137.14,64.08,126,56.8,126,43.77,126,32.71,134.83,22.92,144.72,23.27Z"/><path class="cls-1" d="M7.05,27.63a7.05,7.05,0,1,1,.1-14.1,7.05,7.05,0,1,1-.1,14.1Z"/><path class="cls-1" d="M69.36,23a6.87,6.87,0,0,1,7,7.13A7.08,7.08,0,1,1,62.17,30,6.94,6.94,0,0,1,69.36,23Z"/><path class="cls-1" d="M293.06,23A6.92,6.92,0,0,1,300,30.2a7.14,7.14,0,0,1-7,7,7.28,7.28,0,0,1-7.21-7.27A7.07,7.07,0,0,1,293.06,23Z"/></g></g></svg>