<svg xmlns="http://www.w3.org/2000/svg" viewBox="0 0 18.79 19.29"><defs><style>.cls-1{fill:#fff;fill-rule:evenodd;}</style></defs><g id="Capa_2" data-name="Capa 2"><g id="Elementos"><path class="cls-1" d="M9.89,1l8.5,17.46.4.82H0l.4-.82L8.91,1,9.4,0l.49,1ZM17,18.16,9.4,2.52,1.78,18.16Z"/><path class="cls-1" d="M4.85,18.47,11.13,5.58l.49-1,.49,1,6.28,12.89.4.82H4.45l.4-.82ZM11.62,7.09,6.23,18.16H17Z"/><path class="cls-1" d="M8.1,18.47l4.66-9.56.49-1,.49,1,4.65,9.56.4.82H7.7l.4-.82Zm5.15-8L9.48,18.16H17Z"/></g></g></svg>