<svg xmlns="http://www.w3.org/2000/svg" viewBox="0 0 24.6 19.29"><defs><style>.cls-1,.cls-2{fill:#fff;}.cls-1{fill-rule:evenodd;}</style></defs><g id="Capa_2" data-name="Capa 2"><g id="Elementos"><path class="cls-1" d="M12.38,1l8.51,17.46.39.82H2.49l.4-.82L11.4,1l.49-1,.49,1Zm7.13,17.15L11.89,2.52,4.27,18.16Z"/><path class="cls-1" d="M12.63,15.37a2.51,2.51,0,0,1-1.05.21,1.82,1.82,0,0,1-1.9-2,1.87,1.87,0,0,1,1.93-2.1,2.29,2.29,0,0,1,1,.21l.16-.54a2.68,2.68,0,0,0-1.18-.22A2.49,2.49,0,0,0,9,13.56a2.35,2.35,0,0,0,2.44,2.58,3.08,3.08,0,0,0,1.31-.24l-.12-.53Zm.91.69h.65V10.7h-.65Z"/><polygon class="cls-1" points="14.19 16.11 13.54 16.11 13.48 16.11 13.48 16.06 13.48 10.7 13.48 10.64 13.54 10.64 14.19 10.64 14.24 10.64 14.24 10.7 14.24 16.06 14.24 16.11 14.19 16.11"/><rect class="cls-2" x="13.6" y="10.75" width="0.54" height="5.24"/><path class="cls-1" d="M12.14,15.47a2.07,2.07,0,0,0,.46-.15l.07,0v.07l.13.52v0l0,0a2.19,2.19,0,0,1-.59.18,4.07,4.07,0,0,1-.75.07,2.46,2.46,0,0,1-1.82-.72A2.72,2.72,0,0,1,9,13.56a2.75,2.75,0,0,1,.73-2,2.59,2.59,0,0,1,1.91-.75,3.2,3.2,0,0,1,.67.06,2.18,2.18,0,0,1,.53.17l0,0v.05l-.16.54,0,.06-.06,0a1.62,1.62,0,0,0-.44-.15h0a2.22,2.22,0,0,0-.53-.05,1.77,1.77,0,0,0-1.37.54,2.15,2.15,0,0,0-.51,1.5,2.11,2.11,0,0,0,.5,1.46,1.75,1.75,0,0,0,1.35.52A3.43,3.43,0,0,0,12.14,15.47Z"/><path class="cls-1" d="M12.59,15.45a2.19,2.19,0,0,1-.43.13,2.72,2.72,0,0,1-.58.06,1.87,1.87,0,0,1-1.43-.56,2.23,2.23,0,0,1-.53-1.54A2.27,2.27,0,0,1,10.16,12a1.9,1.9,0,0,1,1.45-.58,2.32,2.32,0,0,1,.55.06,1.8,1.8,0,0,1,.41.13l.13-.43a2.35,2.35,0,0,0-.46-.14,3.9,3.9,0,0,0-.65-.06,2.48,2.48,0,0,0-1.83.73,2.62,2.62,0,0,0-.7,1.89A2.63,2.63,0,0,0,9.7,15.4a2.34,2.34,0,0,0,1.74.68,3.91,3.91,0,0,0,.73-.06,2.58,2.58,0,0,0,.52-.15Z"/><path class="cls-1" d="M1.14,17.14c-.48.24-1,.2-1.11-.09s.16-.7.65-.93L23.46,5.22c.49-.24,1-.2,1.11.09s-.16.7-.64.93Z"/><path class="cls-1" d="M23.46,17.14c.49.24,1,.2,1.11-.09s-.16-.7-.64-.93L1.14,5.22C.66,5,.16,5,0,5.31s.16.7.65.93Z"/></g></g></svg>