<svg xmlns="http://www.w3.org/2000/svg" viewBox="0 0 24.6 19.29"><defs><style>.cls-1{fill:#fff;fill-rule:evenodd;}</style></defs><g id="Capa_2" data-name="Capa 2"><g id="Elementos"><path class="cls-1" d="M1.14,17.92c-.48.23-1,.19-1.11-.09s.16-.7.65-.94L23.46,6c.49-.23,1-.19,1.11.09s-.16.7-.64.93Z"/><path class="cls-1" d="M23.46,17.92c.49.23,1,.19,1.11-.09s-.16-.7-.64-.94L1.14,6C.66,5.76.16,5.8,0,6.08s.16.7.65.93Z"/><path class="cls-1" d="M12.79,1,21.3,18.47l.4.82H2.91l.39-.82L11.81,1l.49-1,.49,1Zm7.13,17.15L12.3,2.52,4.68,18.16Z"/></g></g></svg>