<svg xmlns="http://www.w3.org/2000/svg" viewBox="0 0 18.79 19.29"><defs><style>.cls-1,.cls-2{fill:#fff;}.cls-1{fill-rule:evenodd;}</style></defs><g id="Capa_2" data-name="Capa 2"><g id="Elementos"><path class="cls-1" d="M9.89,1l8.5,17.46.4.82H0l.4-.82L8.91,1,9.4,0l.49,1ZM17,18.16,9.4,2.52,1.78,18.16Z"/><path class="cls-1" d="M10.14,15.37a2.53,2.53,0,0,1-1.06.21,1.82,1.82,0,0,1-1.89-2,1.87,1.87,0,0,1,1.93-2.1,2.21,2.21,0,0,1,1,.21l.17-.54a2.68,2.68,0,0,0-1.18-.22,2.49,2.49,0,0,0-2.59,2.67A2.35,2.35,0,0,0,9,16.14a3.12,3.12,0,0,0,1.31-.24l-.12-.53Zm.91.69h.64V10.7h-.64Z"/><polygon class="cls-1" points="11.7 16.11 11.05 16.11 10.99 16.11 10.99 16.06 10.99 10.7 10.99 10.64 11.05 10.64 11.7 10.64 11.75 10.64 11.75 10.7 11.75 16.06 11.75 16.11 11.7 16.11"/><rect class="cls-2" x="11.1" y="10.75" width="0.54" height="5.24"/><path class="cls-1" d="M9.65,15.47a2.07,2.07,0,0,0,.46-.15l.06,0,0,.07.12.52,0,0,0,0a2.19,2.19,0,0,1-.59.18A4.16,4.16,0,0,1,9,16.2a2.46,2.46,0,0,1-1.82-.72,2.73,2.73,0,0,1-.68-1.92,2.76,2.76,0,0,1,.74-2,2.57,2.57,0,0,1,1.91-.75,3.26,3.26,0,0,1,.67.06,2.18,2.18,0,0,1,.53.17l0,0v.05l-.16.54,0,.06-.06,0a1.62,1.62,0,0,0-.44-.15h0a2.22,2.22,0,0,0-.53-.05A1.81,1.81,0,0,0,7.74,12a2.2,2.2,0,0,0-.5,1.5A2.16,2.16,0,0,0,7.73,15a1.78,1.78,0,0,0,1.35.52A3.45,3.45,0,0,0,9.65,15.47Z"/><path class="cls-1" d="M10.1,15.45a2.42,2.42,0,0,1-.43.13,2.88,2.88,0,0,1-.59.06,1.89,1.89,0,0,1-1.43-.56,2.22,2.22,0,0,1-.52-1.54A2.26,2.26,0,0,1,7.66,12a1.93,1.93,0,0,1,1.46-.58,2.38,2.38,0,0,1,.55.06,2.19,2.19,0,0,1,.41.13l.13-.43A2.35,2.35,0,0,0,9.75,11a3.9,3.9,0,0,0-.65-.06,2.51,2.51,0,0,0-1.84.73,2.65,2.65,0,0,0-.69,1.89,2.63,2.63,0,0,0,.64,1.84A2.33,2.33,0,0,0,9,16.08,3.91,3.91,0,0,0,9.68,16a2.58,2.58,0,0,0,.52-.15Z"/></g></g></svg>