<svg xmlns="http://www.w3.org/2000/svg" viewBox="0 0 14.84 13.74"><defs><style>.cls-1,.cls-2{fill:#fff;}.cls-1{fill-rule:evenodd;}</style></defs><g id="Capa_2" data-name="Capa 2"><g id="Elementos"><path class="cls-1" d="M14.1.3A.38.38,0,0,1,14.55,0a.39.39,0,0,1,.29.46L12.67,10.62a.37.37,0,0,1-.36.3H2.54a.38.38,0,0,1-.37-.32L0,.47A.38.38,0,0,1,.29,0,.37.37,0,0,1,.74.3l2.1,9.85H12Z"/><path class="cls-1" d="M.81,2.68c.11,0,.33-.26.55-.51s.66-.75,1.1-.75.77.38,1.11.75.43.51.54.51.33-.26.55-.51.67-.75,1.11-.75.77.38,1.1.75.44.51.55.51.33-.26.55-.51.66-.75,1.11-.75.77.38,1.1.75.44.51.55.51.33-.26.55-.51.66-.75,1.1-.75.78.38,1.11.75.44.51.55.51v.76c-.44,0-.78-.37-1.11-.75s-.44-.5-.55-.5-.33.25-.55.5-.66.75-1.1.75-.77-.37-1.1-.75-.44-.5-.55-.5-.33.25-.55.5-.67.75-1.11.75-.77-.37-1.1-.75-.44-.5-.55-.5-.33.25-.55.5-.66.75-1.11.75S3.34,3.07,3,2.69s-.44-.5-.55-.5-.33.25-.55.5-.66.75-1.1.75Z"/><rect class="cls-2" x="2.33" y="11.55" width="10.21" height="0.73" rx="0.22"/><rect class="cls-2" x="2.33" y="13.01" width="10.21" height="0.73" rx="0.22"/></g></g></svg>