<svg xmlns="http://www.w3.org/2000/svg" viewBox="0 0 19 12.76"><defs><style>.cls-1{fill:#fff;}</style></defs><g id="Capa_2" data-name="Capa 2"><g id="Elementos"><path class="cls-1" d="M7.71,5.31a1.33,1.33,0,0,1,.61.13,1.51,1.51,0,0,1,.44.35,1.76,1.76,0,0,1,.36,1.08,3.36,3.36,0,0,1-.07.59,3.44,3.44,0,0,1-.2.65,2.91,2.91,0,0,1-.36.64A2.7,2.7,0,0,1,8,9.3a2.36,2.36,0,0,1-.7.38h-.1A.27.27,0,0,1,7,9.63a.19.19,0,0,1-.08-.18A.27.27,0,0,1,7,9.3a.35.35,0,0,1,.16-.09,2.16,2.16,0,0,0,.62-.38,2.78,2.78,0,0,0,.53-.6,2.37,2.37,0,0,0,.29-.73l.14-.06a1.23,1.23,0,0,1-.26.31A1.13,1.13,0,0,1,8.09,8a1.34,1.34,0,0,1-.46.08A1.25,1.25,0,0,1,7,7.89a1.28,1.28,0,0,1-.45-.5,1.64,1.64,0,0,1-.15-.71A1.36,1.36,0,0,1,6.53,6,1.31,1.31,0,0,1,7,5.5,1.23,1.23,0,0,1,7.71,5.31Zm0,.46a.83.83,0,0,0-.44.12A.74.74,0,0,0,7,6.21a.94.94,0,0,0-.12.47,1,1,0,0,0,.1.47.89.89,0,0,0,1.24.33.75.75,0,0,0,.32-.34.94.94,0,0,0,.12-.47,1,1,0,0,0-.11-.45.85.85,0,0,0-.32-.33A.9.9,0,0,0,7.71,5.77Z"/><path class="cls-1" d="M10.86,9.66a1.73,1.73,0,0,1-.49-.08,1.32,1.32,0,0,1-.44-.23.44.44,0,0,1-.08-.11.35.35,0,0,1,0-.13A.22.22,0,0,1,9.88,9a.22.22,0,0,1,.17-.07.34.34,0,0,1,.18.08,1.08,1.08,0,0,0,.3.16,1,1,0,0,0,.33.06,1.31,1.31,0,0,0,.58-.12,1,1,0,0,0,.39-.36A1.05,1.05,0,0,0,12,8.18a1,1,0,0,0-.12-.49.84.84,0,0,0-.35-.32,1,1,0,0,0-.5-.12,1.08,1.08,0,0,0-.38.06,2.64,2.64,0,0,0-.29.14.61.61,0,0,1-.22.07.24.24,0,0,1-.18-.06.35.35,0,0,1-.08-.13.38.38,0,0,1,0-.15l.24-1.57a.23.23,0,0,1,.08-.14.25.25,0,0,1,.17-.06h1.8a.22.22,0,0,1,.17.07.25.25,0,0,1,.06.17.25.25,0,0,1-.06.16.26.26,0,0,1-.17.07H10.44l.06-.06-.22,1.37-.1-.13a.7.7,0,0,1,.2-.12,1.34,1.34,0,0,1,.32-.1,1.49,1.49,0,0,1,.36,0,1.39,1.39,0,0,1,.71.18,1.31,1.31,0,0,1,.5.49,1.39,1.39,0,0,1,.18.71,1.51,1.51,0,0,1-.2.78,1.23,1.23,0,0,1-.54.52A1.75,1.75,0,0,1,10.86,9.66Z"/><path class="cls-1" d="M13.87,7.15A.82.82,0,0,1,13.41,7a.92.92,0,0,1-.32-.33.9.9,0,0,1,0-.9,1,1,0,0,1,.32-.34.9.9,0,0,1,.46-.12.91.91,0,0,1,.47.12,1,1,0,0,1,.32.34.84.84,0,0,1,.11.45,1,1,0,0,1-.11.45.87.87,0,0,1-.33.33A.8.8,0,0,1,13.87,7.15Zm0-.36a.45.45,0,0,0,.37-.17.59.59,0,0,0,.14-.38.62.62,0,0,0-.14-.39.47.47,0,0,0-.37-.16.44.44,0,0,0-.36.16.56.56,0,0,0-.14.4.54.54,0,0,0,.14.37A.42.42,0,0,0,13.87,6.79Z"/><path class="cls-1" d="M15,12.76H4a1.66,1.66,0,0,1-1.61-1.3L0,.59a.49.49,0,0,1,1-.2L3.33,11.25a.69.69,0,0,0,.66.53H15a.67.67,0,0,0,.65-.53L18,.39A.49.49,0,0,1,18.61,0,.5.5,0,0,1,19,.59L16.62,11.46A1.66,1.66,0,0,1,15,12.76Z"/><path class="cls-1" d="M17.42,3.66A2.28,2.28,0,0,1,15.77,3a1.36,1.36,0,0,0-1-.46,1.32,1.32,0,0,0-1,.46,2.29,2.29,0,0,1-3.3,0,1.34,1.34,0,0,0-1-.46,1.32,1.32,0,0,0-1,.46,2.29,2.29,0,0,1-3.3,0,1.32,1.32,0,0,0-2,0,2.32,2.32,0,0,1-1.66.7A2.24,2.24,0,0,1,1,3.6a.48.48,0,0,1-.4-.48.49.49,0,0,1,.49-.49h0l.11,0a1.73,1.73,0,0,0,.32,0,1.36,1.36,0,0,0,1-.46,2.29,2.29,0,0,1,3.3,0,1.32,1.32,0,0,0,2,0,2.31,2.31,0,0,1,3.31,0,1.32,1.32,0,0,0,2,0,2.32,2.32,0,0,1,1.65-.7,2.28,2.28,0,0,1,1.65.7,1.36,1.36,0,0,0,1,.46,1.46,1.46,0,0,0,.38-.05.49.49,0,0,1,.61.32.5.5,0,0,1-.33.62A2.29,2.29,0,0,1,17.42,3.66Z"/></g></g></svg>