<svg xmlns="http://www.w3.org/2000/svg" viewBox="0 0 49.79 49.78"><defs><style>.cls-1{fill:#e9851e;opacity:0;}.cls-2{fill:#fff;fill-rule:evenodd;}</style></defs><g id="Capa_2" data-name="Capa 2"><g id="Elementos"><circle class="cls-1" cx="24.89" cy="24.89" r="24.89" transform="translate(-8.62 14.11) rotate(-27.17)"/><path class="cls-2" d="M39.25,13.81a.8.8,0,0,1,1-.63.82.82,0,0,1,.62,1L36.17,36a.81.81,0,0,1-.78.66h-21a.81.81,0,0,1-.79-.69L9,14.16a.8.8,0,1,1,1.57-.35L15.05,35H34.74Z"/><path class="cls-2" d="M10.68,18.91c.24,0,.71-.54,1.18-1.08.71-.81,1.42-1.63,2.37-1.63s1.67.82,2.38,1.63c.47.54.94,1.08,1.18,1.08s.7-.54,1.18-1.08c.71-.81,1.42-1.63,2.37-1.63S23,17,23.71,17.83c.48.54.95,1.08,1.18,1.08s.71-.54,1.18-1.08c.71-.81,1.43-1.63,2.38-1.63s1.66.82,2.37,1.63c.47.54.94,1.08,1.18,1.08s.71-.54,1.18-1.08c.71-.81,1.42-1.63,2.37-1.63s1.66.82,2.38,1.63c.47.54.94,1.08,1.18,1.08v1.65c-1,0-1.67-.81-2.38-1.63-.47-.54-.94-1.07-1.18-1.07s-.71.53-1.18,1.07c-.71.82-1.42,1.63-2.37,1.63s-1.66-.81-2.37-1.63c-.48-.54-.95-1.07-1.18-1.07s-.71.53-1.18,1.07c-.72.82-1.43,1.63-2.38,1.63s-1.66-.81-2.37-1.63c-.47-.54-.95-1.07-1.18-1.07s-.71.53-1.18,1.07c-.71.82-1.43,1.63-2.37,1.63s-1.67-.81-2.38-1.63c-.47-.54-.94-1.07-1.18-1.07s-.7.53-1.18,1.07c-.71.82-1.42,1.63-2.37,1.63Z"/></g></g></svg>