<svg xmlns="http://www.w3.org/2000/svg" viewBox="0 0 19 12.76"><defs><style>.cls-1{fill:#fff;}</style></defs><g id="Capa_2" data-name="Capa 2"><g id="Elementos"><path class="cls-1" d="M8.29,9.63a.21.21,0,0,1-.17-.08.21.21,0,0,1-.07-.17V6.06l.09,0L6.69,8l0-.07H8.94A.23.23,0,0,1,9.1,8a.22.22,0,0,1,.07.17.21.21,0,0,1-.07.16.23.23,0,0,1-.16.06H6.34a.23.23,0,0,1-.17-.07.22.22,0,0,1-.08-.18A.25.25,0,0,1,6.15,8L8.09,5.48a.25.25,0,0,1,.1-.08l.11,0a.22.22,0,0,1,.17.07.28.28,0,0,1,.06.18V9.38a.21.21,0,0,1-.07.17A.21.21,0,0,1,8.29,9.63Z"/><path class="cls-1" d="M11.16,9.69a1.26,1.26,0,0,1-.84-.29,1.67,1.67,0,0,1-.51-.78A3.25,3.25,0,0,1,9.64,7.5a3.25,3.25,0,0,1,.17-1.12,1.67,1.67,0,0,1,.51-.78,1.25,1.25,0,0,1,.84-.28A1.24,1.24,0,0,1,12,5.6a1.67,1.67,0,0,1,.51.78,3.51,3.51,0,0,1,.17,1.12,3.51,3.51,0,0,1-.17,1.12A1.67,1.67,0,0,1,12,9.4,1.24,1.24,0,0,1,11.16,9.69Zm0-.49A.76.76,0,0,0,11.7,9,1.3,1.3,0,0,0,12,8.4a3,3,0,0,0,.12-.9A3,3,0,0,0,12,6.6,1.3,1.3,0,0,0,11.7,6a.83.83,0,0,0-1.08,0,1.3,1.3,0,0,0-.34.59,3,3,0,0,0-.12.9,3,3,0,0,0,.12.9,1.3,1.3,0,0,0,.34.59A.76.76,0,0,0,11.16,9.2Z"/><path class="cls-1" d="M14.05,7.15A.82.82,0,0,1,13.59,7a.92.92,0,0,1-.32-.33.9.9,0,0,1,0-.9,1,1,0,0,1,.32-.34.9.9,0,0,1,.46-.12.89.89,0,0,1,.47.12,1,1,0,0,1,.32.34.84.84,0,0,1,.12.45.89.89,0,0,1-.12.45.92.92,0,0,1-.32.33A.85.85,0,0,1,14.05,7.15Zm0-.36a.45.45,0,0,0,.37-.17.59.59,0,0,0,.14-.38.62.62,0,0,0-.14-.39.47.47,0,0,0-.37-.16.45.45,0,0,0-.36.16.56.56,0,0,0-.14.4.54.54,0,0,0,.14.37A.43.43,0,0,0,14.05,6.79Z"/><path class="cls-1" d="M15,12.76H4a1.66,1.66,0,0,1-1.61-1.3L0,.59a.49.49,0,0,1,1-.2L3.33,11.25a.69.69,0,0,0,.66.53H15a.67.67,0,0,0,.65-.53L18,.39A.49.49,0,0,1,18.61,0,.5.5,0,0,1,19,.59L16.62,11.46A1.66,1.66,0,0,1,15,12.76Z"/><path class="cls-1" d="M17.42,3.66A2.28,2.28,0,0,1,15.77,3a1.36,1.36,0,0,0-1-.46,1.32,1.32,0,0,0-1,.46,2.29,2.29,0,0,1-3.3,0,1.34,1.34,0,0,0-1-.46,1.32,1.32,0,0,0-1,.46,2.29,2.29,0,0,1-3.3,0,1.32,1.32,0,0,0-2,0,2.32,2.32,0,0,1-1.66.7A2.24,2.24,0,0,1,1,3.6a.48.48,0,0,1-.4-.48.49.49,0,0,1,.49-.49h0l.11,0a1.66,1.66,0,0,0,.32,0,1.36,1.36,0,0,0,1-.46,2.29,2.29,0,0,1,3.3,0,1.32,1.32,0,0,0,2,0,2.31,2.31,0,0,1,3.31,0,1.32,1.32,0,0,0,2,0,2.29,2.29,0,0,1,3.3,0,1.36,1.36,0,0,0,1,.46,1.46,1.46,0,0,0,.38-.05.49.49,0,0,1,.61.32.5.5,0,0,1-.33.62A2.29,2.29,0,0,1,17.42,3.66Z"/></g></g></svg>