<svg xmlns="http://www.w3.org/2000/svg" viewBox="0 0 17.1 12.58"><defs><style>.cls-1{fill:#fff;fill-rule:evenodd;}</style></defs><g id="Capa_2" data-name="Capa 2"><g id="Elementos"><path class="cls-1" d="M16.25.35A.43.43,0,0,1,16.76,0a.45.45,0,0,1,.33.53L14.6,12.23a.44.44,0,0,1-.42.35H2.92a.43.43,0,0,1-.42-.37L0,.54A.45.45,0,0,1,.34,0,.43.43,0,0,1,.85.35L3.27,11.7H13.83Z"/><path class="cls-1" d="M.93,3.08c.13,0,.38-.29.63-.58s.77-.87,1.27-.87.9.44,1.28.87.5.58.63.58.38-.29.63-.58.77-.87,1.27-.87.9.44,1.28.87.5.58.63.58.38-.29.63-.58.77-.87,1.27-.87.9.44,1.28.87.5.58.63.58.38-.29.63-.58.77-.87,1.27-.87.9.44,1.28.87.5.58.63.58V4c-.51,0-.89-.44-1.27-.87s-.51-.58-.64-.58-.37.29-.63.58S12.87,4,12.36,4s-.89-.44-1.27-.87-.51-.58-.64-.58-.37.29-.63.58S9.06,4,8.55,4s-.89-.44-1.27-.87-.51-.58-.64-.58-.38.29-.63.58S5.25,4,4.74,4s-.89-.44-1.27-.87S3,2.52,2.83,2.52s-.38.29-.63.58S1.44,4,.93,4Z"/><path class="cls-1" d="M5.21,9.42A1.21,1.21,0,1,0,4,8.21,1.2,1.2,0,0,0,5.21,9.42Z"/><path class="cls-1" d="M8.55,9.42A1.21,1.21,0,1,0,7.37,8.21,1.2,1.2,0,0,0,8.55,9.42Z"/><path class="cls-1" d="M11.89,9.42a1.21,1.21,0,1,0-1.18-1.21A1.19,1.19,0,0,0,11.89,9.42Z"/></g></g></svg>