<svg xmlns="http://www.w3.org/2000/svg" viewBox="0 0 14.79 12.24"><defs><style>.cls-1,.cls-2{fill:#fff;}.cls-1{fill-rule:evenodd;}</style></defs><g id="Capa_2" data-name="Capa 2"><g id="Elementos"><path class="cls-1" d="M14.05.3A.37.37,0,0,1,14.49,0a.39.39,0,0,1,.29.45L12.62,10.58a.36.36,0,0,1-.36.3H2.53a.38.38,0,0,1-.37-.32L0,.46A.37.37,0,0,1,.29,0,.38.38,0,0,1,.74.3l2.09,9.82H12Z"/><path class="cls-1" d="M.8,2.67c.11,0,.33-.25.55-.5s.66-.76,1.1-.76.77.38,1.1.76.44.5.55.5.33-.25.55-.5.66-.76,1.1-.76.77.38,1.1.76.43.5.54.5.33-.25.55-.5S8.6,1.41,9,1.41s.77.38,1.1.76.44.5.55.5.33-.25.55-.5.66-.76,1.1-.76.77.38,1.1.76.44.5.54.5v.76c-.44,0-.77-.38-1.1-.75s-.43-.5-.54-.5-.33.25-.55.5-.66.75-1.1.75-.77-.38-1.1-.75-.44-.5-.55-.5-.33.25-.55.5-.66.75-1.1.75-.77-.38-1.1-.75-.43-.5-.54-.5-.33.25-.55.5-.66.75-1.1.75S3.33,3.05,3,2.68s-.44-.5-.55-.5-.33.25-.55.5-.66.75-1.1.75Z"/><rect class="cls-2" x="2.32" y="11.51" width="10.17" height="0.73" rx="0.22"/></g></g></svg>