<svg xmlns="http://www.w3.org/2000/svg" viewBox="0 0 17.1 11.48"><defs><style>.cls-1{fill:#fff;}</style></defs><g id="Capa_2" data-name="Capa 2"><g id="Elementos"><circle class="cls-1" cx="6.08" cy="5.8" r="0.71"/><circle class="cls-1" cx="8.55" cy="5.8" r="0.71"/><circle class="cls-1" cx="11.02" cy="5.8" r="0.71"/><circle class="cls-1" cx="6.99" cy="8.27" r="0.71"/><circle class="cls-1" cx="9.46" cy="8.27" r="0.71"/><path class="cls-1" d="M13.51,11.48H3.59a1.5,1.5,0,0,1-1.45-1.17L0,.53A.44.44,0,0,1,.35,0,.44.44,0,0,1,.87.35L3,10.12a.61.61,0,0,0,.59.48h9.92a.61.61,0,0,0,.59-.48L16.23.35A.44.44,0,0,1,16.75,0a.44.44,0,0,1,.34.52L15,10.31A1.5,1.5,0,0,1,13.51,11.48Z"/><path class="cls-1" d="M15.68,3.29a2.06,2.06,0,0,1-1.49-.63,1.2,1.2,0,0,0-.9-.41,1.24,1.24,0,0,0-.91.41,2.05,2.05,0,0,1-1.48.63,2.1,2.1,0,0,1-1.49-.63,1.2,1.2,0,0,0-.9-.41,1.24,1.24,0,0,0-.91.41,2.05,2.05,0,0,1-3,0,1.24,1.24,0,0,0-.91-.41,1.2,1.2,0,0,0-.9.41,2.06,2.06,0,0,1-1.49.63,1.83,1.83,0,0,1-.47,0A.44.44,0,0,1,1,2.37h.1a1.27,1.27,0,0,0,.28,0A1.2,1.2,0,0,0,2.25,2a2.07,2.07,0,0,1,3,0A1.19,1.19,0,0,0,7,2a2.08,2.08,0,0,1,1.49-.63A2.05,2.05,0,0,1,10,2a1.24,1.24,0,0,0,.91.41A1.2,1.2,0,0,0,11.8,2a2.07,2.07,0,0,1,3,0,1.22,1.22,0,0,0,.91.41,1.18,1.18,0,0,0,.34,0,.44.44,0,1,1,.26.84A2,2,0,0,1,15.68,3.29Z"/></g></g></svg>