<svg xmlns="http://www.w3.org/2000/svg" viewBox="0 0 19.87 19.87"><defs><style>.cls-1{fill:#fff;}</style></defs><g id="Capa_2" data-name="Capa 2"><g id="Elementos"><path class="cls-1" d="M9.94,19.87a9.94,9.94,0,1,1,9.93-9.93A10,10,0,0,1,9.94,19.87ZM9.94,1a8.92,8.92,0,1,0,8.91,8.92A8.93,8.93,0,0,0,9.94,1Z"/><path class="cls-1" d="M14.68,15.88H5.19a.51.51,0,0,1-.51-.51V4.51A.51.51,0,0,1,5.19,4h9.49a.51.51,0,0,1,.51.52V15.37A.51.51,0,0,1,14.68,15.88Zm-9-1h8.46V5H5.71Z"/><path class="cls-1" d="M14.68,7.62H5.19a.52.52,0,0,1,0-1h9.49a.52.52,0,0,1,0,1Z"/></g></g></svg>