<svg xmlns="http://www.w3.org/2000/svg" viewBox="0 0 23.32 17.16"><defs><style>.cls-1{fill:#fff;fill-rule:evenodd;}</style></defs><g id="Capa_2" data-name="Capa 2"><g id="Elementos"><path class="cls-1" d="M22.16.48a.59.59,0,0,1,.7-.47.61.61,0,0,1,.45.72l-3.4,16a.59.59,0,0,1-.58.48H4a.6.6,0,0,1-.58-.5L0,.73A.61.61,0,0,1,.46,0a.59.59,0,0,1,.7.47L4.46,16h14.4Z"/><path class="cls-1" d="M1.27,4.2c.17,0,.51-.39.86-.78.52-.6,1-1.19,1.74-1.19s1.21.59,1.73,1.19c.35.39.69.78.86.78s.52-.39.87-.78c.52-.6,1-1.19,1.73-1.19s1.22.59,1.74,1.19c.34.39.69.78.86.78s.52-.39.86-.78c.52-.6,1-1.19,1.74-1.19s1.21.59,1.74,1.19c.34.39.69.78.86.78s.51-.39.86-.78c.52-.6,1-1.19,1.74-1.19s1.21.59,1.73,1.19c.35.39.69.78.86.78V5.41c-.69,0-1.21-.59-1.73-1.19-.35-.39-.69-.79-.86-.79s-.52.4-.87.79c-.52.6-1,1.19-1.73,1.19s-1.22-.59-1.74-1.19c-.34-.39-.69-.79-.86-.79s-.52.4-.86.79c-.52.6-1.05,1.19-1.74,1.19s-1.21-.59-1.73-1.19c-.35-.39-.7-.79-.87-.79s-.52.4-.86.79c-.52.6-1,1.19-1.74,1.19S5.25,4.82,4.73,4.22c-.35-.39-.69-.79-.86-.79s-.52.4-.87.79c-.52.6-1,1.19-1.73,1.19Z"/></g></g></svg>