<svg xmlns="http://www.w3.org/2000/svg" viewBox="0 0 22.07 16.24"><defs><style>.cls-1{fill:#fff;fill-rule:evenodd;}</style></defs><g id="Capa_2" data-name="Capa 2"><g id="Elementos"><path class="cls-1" d="M21,.45A.56.56,0,0,1,21.63,0a.58.58,0,0,1,.43.68l-3.22,15.1a.55.55,0,0,1-.54.45H3.77a.55.55,0,0,1-.54-.47L0,.69A.58.58,0,0,1,.44,0,.56.56,0,0,1,1.1.45L4.22,15.1H17.85Z"/><path class="cls-1" d="M1.2,4c.16,0,.49-.37.82-.75.49-.56,1-1.12,1.64-1.12s1.15.56,1.64,1.12c.33.38.65.75.82.75s.49-.37.81-.75c.5-.56,1-1.12,1.65-1.12s1.15.56,1.64,1.12c.33.38.65.75.82.75s.49-.37.81-.75c.5-.56,1-1.12,1.64-1.12s1.15.56,1.65,1.12c.32.38.65.75.81.75s.49-.37.82-.75c.49-.56,1-1.12,1.64-1.12s1.15.56,1.65,1.12c.32.38.65.75.81.75V5.12c-.65,0-1.15-.56-1.64-1.12-.33-.38-.65-.75-.82-.75s-.49.37-.81.75c-.5.56-1,1.12-1.65,1.12S14.8,4.56,14.31,4c-.33-.38-.65-.75-.82-.75s-.49.37-.81.75c-.49.56-1,1.12-1.64,1.12S9.89,4.56,9.39,4c-.32-.38-.65-.75-.81-.75s-.49.37-.82.75c-.49.56-1,1.12-1.64,1.12S5,4.56,4.47,4c-.32-.38-.65-.75-.81-.75s-.49.37-.82.75c-.49.56-1,1.12-1.64,1.12Z"/><path class="cls-1" d="M11,12.16A1.56,1.56,0,1,0,9.51,10.6,1.55,1.55,0,0,0,11,12.16Z"/></g></g></svg>