<svg xmlns="http://www.w3.org/2000/svg" viewBox="0 0 21.77 16.02"><defs><style>.cls-1,.cls-2{fill:#fff;}.cls-1{fill-rule:evenodd;}.cls-2{font-size:6.42px;font-family:FilsonProBold;}</style></defs><g id="Capa_2" data-name="Capa 2"><g id="Elementos"><path class="cls-1" d="M20.68.44A.56.56,0,0,1,21.34,0a.58.58,0,0,1,.42.67L18.58,15.57a.54.54,0,0,1-.53.45H3.72a.56.56,0,0,1-.54-.47L0,.68A.58.58,0,0,1,.43,0a.55.55,0,0,1,.65.43L4.16,14.89H17.61Z"/><path class="cls-1" d="M1.18,3.92c.16,0,.49-.36.81-.73.48-.56,1-1.11,1.62-1.11s1.13.55,1.62,1.11c.32.37.64.73.8.73s.49-.36.81-.73c.49-.56,1-1.11,1.62-1.11s1.13.55,1.62,1.11c.32.37.64.73.81.73s.48-.36.8-.73c.49-.56,1-1.11,1.62-1.11s1.13.55,1.62,1.11c.32.37.65.73.81.73s.48-.36.8-.73c.49-.56,1-1.11,1.62-1.11s1.14.55,1.62,1.11c.32.37.65.73.81.73V5.05c-.65,0-1.14-.55-1.62-1.11-.33-.37-.65-.73-.81-.73s-.48.36-.8.73c-.49.56-1,1.11-1.62,1.11S14.6,4.5,14.12,3.94c-.33-.37-.65-.73-.81-.73s-.48.36-.8.73c-.49.56-1,1.11-1.62,1.11S9.75,4.5,9.26,3.94c-.32-.37-.64-.73-.8-.73s-.48.36-.81.73c-.48.56-1,1.11-1.62,1.11S4.9,4.5,4.41,3.94c-.32-.37-.64-.73-.8-.73s-.48.36-.81.73c-.48.56-1,1.11-1.62,1.11Z"/><text class="cls-2" transform="translate(7.64 12.58)">30°</text></g></g></svg>