<svg xmlns="http://www.w3.org/2000/svg" viewBox="0 0 17.1 11.42"><defs><style>.cls-1{fill:#fff;}</style></defs><g id="Capa_2" data-name="Capa 2"><g id="Elementos"><circle class="cls-1" cx="7.3" cy="5.77" r="0.72"/><circle class="cls-1" cx="9.8" cy="5.77" r="0.72"/><circle class="cls-1" cx="7.3" cy="8.26" r="0.72"/><circle class="cls-1" cx="9.8" cy="8.26" r="0.72"/><path class="cls-1" d="M13.56,11.42h-10a1.42,1.42,0,0,1-1.38-1.11L0,.43A.35.35,0,0,1,.28,0,.35.35,0,0,1,.7.28l2.15,9.88a.71.71,0,0,0,.69.55h10a.71.71,0,0,0,.69-.55L16.4.28a.35.35,0,1,1,.69.15l-2.15,9.88A1.42,1.42,0,0,1,13.56,11.42Z"/><path class="cls-1" d="M15.75,3.15a2,2,0,0,1-1.44-.62,1.29,1.29,0,0,0-1-.44,1.33,1.33,0,0,0-1,.44,2,2,0,0,1-1.44.62,2,2,0,0,1-1.44-.62,1.33,1.33,0,0,0-1-.44,1.37,1.37,0,0,0-1,.44,2,2,0,0,1-2.87,0,1.37,1.37,0,0,0-1-.44,1.29,1.29,0,0,0-1,.44,2,2,0,0,1-1.44.62,2.31,2.31,0,0,1-.46,0,.36.36,0,0,1,.06-.71H1a1.06,1.06,0,0,0,.31,0,1.33,1.33,0,0,0,1-.44,2,2,0,0,1,1.44-.62A2,2,0,0,1,5.12,2a1.3,1.3,0,0,0,2,0A2,2,0,0,1,10,2a1.33,1.33,0,0,0,1,.44,1.37,1.37,0,0,0,1-.44,2,2,0,0,1,1.44-.62A2,2,0,0,1,14.78,2a1.33,1.33,0,0,0,1,.44,1.38,1.38,0,0,0,.37,0,.36.36,0,0,1,.45.23.37.37,0,0,1-.24.45A2.14,2.14,0,0,1,15.75,3.15Z"/></g></g></svg>