<svg xmlns="http://www.w3.org/2000/svg" viewBox="0 0 18.3 13.46"><defs><style>.cls-1{fill:#fff;fill-rule:evenodd;}</style></defs><g id="Capa_2" data-name="Capa 2"><g id="Elementos"><path class="cls-1" d="M1,3.3c.14,0,.41-.31.68-.62.41-.47.82-.93,1.36-.93s1,.46,1.37.93c.27.31.54.62.67.62s.41-.31.68-.62c.41-.47.82-.93,1.36-.93s1,.46,1.36.93c.27.31.54.62.68.62s.41-.31.68-.62c.41-.47.81-.93,1.36-.93s1,.46,1.36.93c.27.31.54.62.68.62s.4-.31.67-.62c.41-.47.82-.93,1.37-.93s.95.46,1.36.93c.27.31.54.62.67.62v1c-.54,0-.95-.47-1.36-.94-.27-.31-.54-.62-.67-.62s-.41.31-.68.62c-.41.47-.82.94-1.36.94s-1-.47-1.37-.94c-.27-.31-.54-.62-.67-.62s-.41.31-.68.62c-.41.47-.82.94-1.36.94s-1-.47-1.36-.94c-.27-.31-.54-.62-.68-.62s-.41.31-.68.62c-.4.47-.81.94-1.36.94s-1-.47-1.36-.94C3.44,3,3.17,2.69,3,2.69s-.4.31-.67.62c-.41.47-.82.94-1.37.94Z"/><path class="cls-1" d="M17.39.37A.47.47,0,0,1,17.94,0a.48.48,0,0,1,.35.56L15.62,13.09a.47.47,0,0,1-.45.37h-12a.47.47,0,0,1-.46-.39L0,.57A.48.48,0,0,1,.36,0,.47.47,0,0,1,.91.37L3.5,12.52H14.8Z"/><path class="cls-1" d="M7.36,10.08A1.3,1.3,0,1,0,6.1,8.79,1.28,1.28,0,0,0,7.36,10.08Z"/><path class="cls-1" d="M10.93,10.08A1.3,1.3,0,1,0,9.67,8.79,1.28,1.28,0,0,0,10.93,10.08Z"/></g></g></svg>