<svg xmlns="http://www.w3.org/2000/svg" viewBox="0 0 22.93 22.97"><defs><style>.cls-1{fill:#fff;fill-rule:evenodd;}</style></defs><g id="Capa_2" data-name="Capa 2"><g id="Elementos"><path class="cls-1" d="M21.78,5.39a.58.58,0,0,1,.66-.5.61.61,0,0,1,.49.68l-2.31,15.9a.6.6,0,0,1-.54.51h0L5,23a.59.59,0,0,1-.61-.45L0,7.08a.6.6,0,0,1,.4-.74.59.59,0,0,1,.72.41l4.24,15,14.16-.93Z"/><path class="cls-1" d="M1.48,10.41c.17,0,.48-.42.8-.83C2.75,9,3.22,8.34,3.91,8.3s1.23.5,1.78,1c.37.37.73.73.9.72s.48-.42.8-.83C7.86,8.62,8.33,8,9,8S10.25,8.47,10.8,9c.37.36.73.73.9.72s.48-.43.8-.84c.47-.61.94-1.23,1.63-1.28s1.23.51,1.78,1.06c.36.36.73.73.9.72s.48-.42.79-.83c.48-.62.95-1.24,1.64-1.28s1.23.5,1.78,1c.36.37.73.73.9.72L22,10.25c-.69,0-1.24-.51-1.79-1.06-.36-.36-.73-.73-.9-.72s-.48.42-.79.83c-.48.62-.95,1.24-1.63,1.29s-1.24-.51-1.79-1.06c-.36-.37-.73-.73-.9-.72s-.48.42-.79.83c-.48.62-.95,1.24-1.63,1.28s-1.24-.5-1.79-1.05c-.36-.37-.73-.73-.9-.72s-.48.42-.79.83c-.48.62-1,1.24-1.63,1.28s-1.24-.51-1.79-1.06c-.36-.36-.73-.73-.89-.72s-.49.43-.8.84c-.47.61-.95,1.23-1.63,1.28Z"/><path class="cls-1" d="M8.72,5.92l-.17.27L7.41,8.1,5.3,11.62a.88.88,0,0,0,.27,1.18h0a.83.83,0,0,0,1.15-.28L8.82,9l.28.17L6.26,13.91a.88.88,0,0,0,.27,1.18h0a.82.82,0,0,0,1.14-.28l2.84-4.74.28.17-3.12,5.2A.87.87,0,0,0,8,16.61H8a.81.81,0,0,0,1.14-.27l3.11-5.2.28.17L9.64,16.05a.86.86,0,0,0,.27,1.17h0A.81.81,0,0,0,11.05,17l2.84-4.74L15,10.29l.34.22-1.23,2.06a.8.8,0,0,0,.36,1h0a.75.75,0,0,0,1.05-.12l2.76-4.61a3.15,3.15,0,0,0,0-3.34L17.94,5a.91.91,0,0,1,0-1l.34-.52a.52.52,0,0,0,.07-.42.51.51,0,0,0-.24-.35L13.94.08a.54.54,0,0,0-.74.17l-.88,1.42a.89.89,0,0,1-.47.39,2.93,2.93,0,0,0-1.62,1.32L9.47,4.65Z"/></g></g></svg>