<svg xmlns="http://www.w3.org/2000/svg" viewBox="0 0 19 12.76"><defs><style>.cls-1{fill:#fff;}</style></defs><g id="Capa_2" data-name="Capa 2"><g id="Elementos"><path class="cls-1" d="M7.75,9.69a1.4,1.4,0,0,1-.6-.13A1.33,1.33,0,0,1,6.7,9.2a1.41,1.41,0,0,1-.26-.5,1.9,1.9,0,0,1-.09-.58,3.17,3.17,0,0,1,.06-.58,3,3,0,0,1,.21-.66A3.33,3.33,0,0,1,7,6.24a2.75,2.75,0,0,1,.52-.56,2.13,2.13,0,0,1,.7-.37.2.2,0,0,1,.1,0,.31.31,0,0,1,.17,0,.23.23,0,0,1,.08.19.2.2,0,0,1-.06.15.27.27,0,0,1-.15.09A2.08,2.08,0,0,0,7.86,6a2.69,2.69,0,0,0-.43.4,2.93,2.93,0,0,0-.34.5,2.35,2.35,0,0,0-.2.56l-.14,0A1.48,1.48,0,0,1,7,7.24,1.28,1.28,0,0,1,7.38,7a1,1,0,0,1,.46-.1A1.07,1.07,0,0,1,8.33,7a1.53,1.53,0,0,1,.41.31A1.48,1.48,0,0,1,9,7.79a1.5,1.5,0,0,1,.1.52A1.37,1.37,0,0,1,8.94,9a1.47,1.47,0,0,1-.49.5A1.29,1.29,0,0,1,7.75,9.69Zm0-.46a.88.88,0,0,0,.46-.12.8.8,0,0,0,.31-.32,1.06,1.06,0,0,0,.11-.48,1,1,0,0,0-.1-.46.88.88,0,0,0-.29-.34.81.81,0,0,0-.47-.13.84.84,0,0,0-.48.13A.81.81,0,0,0,7,7.85a1,1,0,0,0-.11.47A.88.88,0,0,0,7,8.77a.84.84,0,0,0,.31.34A.89.89,0,0,0,7.74,9.23Z"/><path class="cls-1" d="M11.14,9.69a1.29,1.29,0,0,1-.85-.29,1.83,1.83,0,0,1-.51-.78A3.51,3.51,0,0,1,9.61,7.5a3.51,3.51,0,0,1,.17-1.12,1.83,1.83,0,0,1,.51-.78A1.42,1.42,0,0,1,12,5.6a1.83,1.83,0,0,1,.51.78,3.51,3.51,0,0,1,.17,1.12,3.51,3.51,0,0,1-.17,1.12A1.83,1.83,0,0,1,12,9.4,1.28,1.28,0,0,1,11.14,9.69Zm0-.49A.72.72,0,0,0,11.67,9,1.21,1.21,0,0,0,12,8.4a3,3,0,0,0,.12-.9A3,3,0,0,0,12,6.6,1.21,1.21,0,0,0,11.67,6a.76.76,0,0,0-.53-.2.81.81,0,0,0-.55.2,1.39,1.39,0,0,0-.34.59,3.35,3.35,0,0,0-.11.9,3.35,3.35,0,0,0,.11.9,1.39,1.39,0,0,0,.34.59A.77.77,0,0,0,11.14,9.2Z"/><path class="cls-1" d="M14,7.15A.8.8,0,0,1,13.57,7a.85.85,0,0,1-.32-.33.9.9,0,0,1,0-.9,1,1,0,0,1,.32-.34A.88.88,0,0,1,14,5.33a.94.94,0,0,1,.47.12,1,1,0,0,1,.32.34.94.94,0,0,1,.11.45.89.89,0,0,1-.12.45.85.85,0,0,1-.32.33A.8.8,0,0,1,14,7.15Zm0-.36a.42.42,0,0,0,.36-.17.55.55,0,0,0,.15-.38.58.58,0,0,0-.15-.39.48.48,0,0,0-.72,0,.57.57,0,0,0-.15.4.55.55,0,0,0,.15.37A.42.42,0,0,0,14,6.79Z"/><path class="cls-1" d="M15,12.76H4a1.66,1.66,0,0,1-1.61-1.3L0,.59a.49.49,0,0,1,1-.2L3.33,11.25a.69.69,0,0,0,.66.53H15a.67.67,0,0,0,.65-.53L18,.39A.49.49,0,0,1,18.61,0,.5.5,0,0,1,19,.59L16.62,11.46A1.66,1.66,0,0,1,15,12.76Z"/><path class="cls-1" d="M17.42,3.66A2.28,2.28,0,0,1,15.77,3a1.36,1.36,0,0,0-1-.46,1.32,1.32,0,0,0-1,.46,2.29,2.29,0,0,1-3.3,0,1.34,1.34,0,0,0-1-.46,1.32,1.32,0,0,0-1,.46,2.29,2.29,0,0,1-3.3,0,1.32,1.32,0,0,0-2,0,2.32,2.32,0,0,1-1.66.7A2.24,2.24,0,0,1,1,3.6a.48.48,0,0,1-.4-.48.49.49,0,0,1,.49-.49h0l.11,0a1.66,1.66,0,0,0,.32,0,1.36,1.36,0,0,0,1-.46,2.29,2.29,0,0,1,3.3,0,1.32,1.32,0,0,0,2,0,2.31,2.31,0,0,1,3.31,0,1.32,1.32,0,0,0,2,0,2.29,2.29,0,0,1,3.3,0,1.36,1.36,0,0,0,1,.46,1.46,1.46,0,0,0,.38-.05.49.49,0,0,1,.61.32.5.5,0,0,1-.33.62A2.29,2.29,0,0,1,17.42,3.66Z"/></g></g></svg>