<svg xmlns="http://www.w3.org/2000/svg" viewBox="0 0 25.95 17.11"><defs><style>.cls-1{fill:#fff;fill-rule:evenodd;}</style></defs><g id="Capa_2" data-name="Capa 2"><g id="Elementos"><path class="cls-1" d="M23.33.47A.59.59,0,0,1,24,0a.6.6,0,0,1,.44.71L21.11,16.46a.59.59,0,0,1-.57.47H5.41a.59.59,0,0,1-.58-.5L1.48.72A.61.61,0,0,1,1.93,0a.59.59,0,0,1,.69.46L5.87,15.74H20.08Z"/><path class="cls-1" d="M2.72,4.15c.17,0,.51-.39.85-.78.52-.59,1-1.17,1.71-1.17S6.48,2.78,7,3.37c.34.39.68.78.85.78s.51-.39.85-.78c.51-.59,1-1.17,1.71-1.17s1.2.58,1.71,1.17c.34.39.69.78.85.78s.52-.39.86-.78c.51-.59,1-1.17,1.71-1.17s1.2.58,1.71,1.17c.34.39.68.78.85.78s.51-.39.85-.78c.52-.59,1-1.17,1.71-1.17s1.2.58,1.72,1.17c.34.39.68.78.85.78V5.34c-.69,0-1.2-.59-1.71-1.17-.34-.39-.69-.78-.86-.78s-.51.39-.85.78c-.51.58-1,1.17-1.71,1.17s-1.2-.59-1.71-1.17c-.34-.39-.68-.78-.85-.78s-.51.39-.85.78c-.52.58-1,1.17-1.72,1.17s-1.19-.59-1.71-1.17c-.34-.39-.68-.78-.85-.78s-.51.39-.85.78c-.51.58-1,1.17-1.71,1.17s-1.2-.59-1.71-1.17c-.34-.39-.69-.78-.86-.78s-.51.39-.85.77c-.51.59-1,1.18-1.71,1.18Z"/><path class="cls-1" d="M1.21,17c-.52.25-1,.21-1.18-.09s.17-.74.69-1l24-11.5c.52-.24,1-.2,1.18.1s-.17.73-.69,1Z"/><path class="cls-1" d="M24.74,17c.52.25,1,.21,1.18-.09s-.17-.74-.69-1l-24-11.5c-.52-.24-1-.2-1.18.1s.17.73.69,1Z"/></g></g></svg>