<svg xmlns="http://www.w3.org/2000/svg" viewBox="0 0 19 12.76"><defs><style>.cls-1{fill:#fff;}</style></defs><g id="Capa_2" data-name="Capa 2"><g id="Elementos"><path class="cls-1" d="M7.46,9.66A1.74,1.74,0,0,1,7,9.58a1.32,1.32,0,0,1-.44-.23.44.44,0,0,1-.08-.11.35.35,0,0,1,0-.13A.19.19,0,0,1,6.48,9a.19.19,0,0,1,.16-.07A.31.31,0,0,1,6.82,9a1.08,1.08,0,0,0,.3.16,1,1,0,0,0,.33.06A1.31,1.31,0,0,0,8,9.08a1,1,0,0,0,.39-.36,1.05,1.05,0,0,0,.13-.54,1,1,0,0,0-.12-.49.84.84,0,0,0-.35-.32,1,1,0,0,0-.5-.12,1.12,1.12,0,0,0-.38.06,2.64,2.64,0,0,0-.29.14.61.61,0,0,1-.22.07.26.26,0,0,1-.18-.06.35.35,0,0,1-.08-.13.76.76,0,0,1,0-.15l.24-1.57a.29.29,0,0,1,.08-.14.25.25,0,0,1,.17-.06h1.8a.22.22,0,0,1,.17.07.25.25,0,0,1,.06.17.23.23,0,0,1-.06.16.26.26,0,0,1-.17.07H7l.06-.06L6.87,7.19l-.1-.13A.7.7,0,0,1,7,6.94a1.34,1.34,0,0,1,.32-.1,1.5,1.5,0,0,1,.37,0,1.38,1.38,0,0,1,.7.18,1.31,1.31,0,0,1,.5.49A1.39,1.39,0,0,1,9,8.17,1.5,1.5,0,0,1,8.85,9a1.31,1.31,0,0,1-.55.52A1.74,1.74,0,0,1,7.46,9.66Z"/><path class="cls-1" d="M11.22,9.69a1.24,1.24,0,0,1-.84-.29,1.67,1.67,0,0,1-.51-.78A3.25,3.25,0,0,1,9.7,7.5a3.25,3.25,0,0,1,.17-1.12,1.67,1.67,0,0,1,.51-.78,1.24,1.24,0,0,1,.84-.28,1.25,1.25,0,0,1,.84.28,1.83,1.83,0,0,1,.51.78,3.51,3.51,0,0,1,.17,1.12,3.51,3.51,0,0,1-.17,1.12,1.83,1.83,0,0,1-.51.78A1.26,1.26,0,0,1,11.22,9.69Zm0-.49A.76.76,0,0,0,11.76,9a1.39,1.39,0,0,0,.34-.59,3,3,0,0,0,.11-.9,3,3,0,0,0-.11-.9A1.39,1.39,0,0,0,11.76,6a.8.8,0,0,0-.54-.2.77.77,0,0,0-.54.2,1.21,1.21,0,0,0-.34.59,3,3,0,0,0-.12.9,3,3,0,0,0,.12.9,1.21,1.21,0,0,0,.34.59A.73.73,0,0,0,11.22,9.2Z"/><path class="cls-1" d="M14.11,7.15A.82.82,0,0,1,13.65,7a.85.85,0,0,1-.32-.33.9.9,0,0,1,0-.9,1,1,0,0,1,.32-.34.9.9,0,0,1,.46-.12.91.91,0,0,1,.47.12,1,1,0,0,1,.32.34.94.94,0,0,1,.11.45.89.89,0,0,1-.12.45.78.78,0,0,1-.32.33A.8.8,0,0,1,14.11,7.15Zm0-.36a.45.45,0,0,0,.37-.17.59.59,0,0,0,.14-.38.57.57,0,0,0-.14-.38.45.45,0,0,0-.37-.17.44.44,0,0,0-.36.16.57.57,0,0,0-.15.4.55.55,0,0,0,.15.37A.42.42,0,0,0,14.11,6.79Z"/><path class="cls-1" d="M15,12.76H4a1.66,1.66,0,0,1-1.61-1.3L0,.59a.49.49,0,0,1,1-.2L3.33,11.25a.69.69,0,0,0,.66.53H15a.67.67,0,0,0,.65-.53L18,.39A.49.49,0,0,1,18.61,0,.5.5,0,0,1,19,.59L16.62,11.46A1.66,1.66,0,0,1,15,12.76Z"/><path class="cls-1" d="M17.42,3.66A2.28,2.28,0,0,1,15.77,3a1.36,1.36,0,0,0-1-.46,1.32,1.32,0,0,0-1,.46,2.29,2.29,0,0,1-3.3,0,1.34,1.34,0,0,0-1-.46,1.32,1.32,0,0,0-1,.46,2.29,2.29,0,0,1-3.3,0,1.32,1.32,0,0,0-2,0,2.32,2.32,0,0,1-1.66.7A2.24,2.24,0,0,1,1,3.6a.48.48,0,0,1-.4-.48.49.49,0,0,1,.49-.49h0l.11,0a1.66,1.66,0,0,0,.32,0,1.36,1.36,0,0,0,1-.46,2.29,2.29,0,0,1,3.3,0,1.32,1.32,0,0,0,2,0,2.31,2.31,0,0,1,3.31,0,1.32,1.32,0,0,0,2,0,2.32,2.32,0,0,1,1.65-.7,2.28,2.28,0,0,1,1.65.7,1.36,1.36,0,0,0,1,.46,1.46,1.46,0,0,0,.38-.05.49.49,0,0,1,.61.32.5.5,0,0,1-.33.62A2.29,2.29,0,0,1,17.42,3.66Z"/></g></g></svg>