<svg xmlns="http://www.w3.org/2000/svg" viewBox="0 0 19 12.76"><defs><style>.cls-1{fill:#fff;}</style></defs><g id="Capa_2" data-name="Capa 2"><g id="Elementos"><path class="cls-1" d="M7.14,9.65A.28.28,0,0,1,7,9.59a.25.25,0,0,1-.08-.17.2.2,0,0,1,0-.11L8.48,5.76l.07.11h-2a.22.22,0,0,1-.17-.07.2.2,0,0,1-.07-.16.19.19,0,0,1,.07-.16.26.26,0,0,1,.17-.07H8.79A.29.29,0,0,1,9,5.48.24.24,0,0,1,9,5.65a.23.23,0,0,1,0,.11L7.37,9.49a.23.23,0,0,1-.1.12A.2.2,0,0,1,7.14,9.65Z"/><path class="cls-1" d="M11,9.69a1.24,1.24,0,0,1-.84-.29,1.67,1.67,0,0,1-.51-.78A3.25,3.25,0,0,1,9.51,7.5a3.25,3.25,0,0,1,.17-1.12,1.67,1.67,0,0,1,.51-.78A1.24,1.24,0,0,1,11,5.32a1.27,1.27,0,0,1,.84.28,1.83,1.83,0,0,1,.51.78,3.51,3.51,0,0,1,.17,1.12,3.51,3.51,0,0,1-.17,1.12,1.83,1.83,0,0,1-.51.78A1.28,1.28,0,0,1,11,9.69Zm0-.49A.76.76,0,0,0,11.57,9a1.39,1.39,0,0,0,.34-.59A3.35,3.35,0,0,0,12,7.5a3.35,3.35,0,0,0-.11-.9A1.39,1.39,0,0,0,11.57,6a.8.8,0,0,0-.54-.2.77.77,0,0,0-.54.2,1.21,1.21,0,0,0-.34.59,3,3,0,0,0-.12.9,3,3,0,0,0,.12.9,1.21,1.21,0,0,0,.34.59A.73.73,0,0,0,11,9.2Z"/><path class="cls-1" d="M13.92,7.15A.82.82,0,0,1,13.46,7a.85.85,0,0,1-.32-.33.9.9,0,0,1,0-.9,1,1,0,0,1,.32-.34.9.9,0,0,1,.46-.12.91.91,0,0,1,.47.12,1,1,0,0,1,.32.34.94.94,0,0,1,.11.45.89.89,0,0,1-.12.45.78.78,0,0,1-.32.33A.8.8,0,0,1,13.92,7.15Zm0-.36a.45.45,0,0,0,.37-.17.59.59,0,0,0,.14-.38.57.57,0,0,0-.14-.38.45.45,0,0,0-.37-.17.44.44,0,0,0-.36.16.57.57,0,0,0-.15.4.55.55,0,0,0,.15.37A.42.42,0,0,0,13.92,6.79Z"/><path class="cls-1" d="M15,12.76H4a1.66,1.66,0,0,1-1.61-1.3L0,.59a.49.49,0,0,1,1-.2L3.33,11.25a.69.69,0,0,0,.66.53H15a.67.67,0,0,0,.65-.53L18,.39A.49.49,0,0,1,18.61,0,.5.5,0,0,1,19,.59L16.62,11.46A1.66,1.66,0,0,1,15,12.76Z"/><path class="cls-1" d="M17.42,3.66A2.28,2.28,0,0,1,15.77,3a1.36,1.36,0,0,0-1-.46,1.32,1.32,0,0,0-1,.46,2.29,2.29,0,0,1-3.3,0,1.34,1.34,0,0,0-1-.46,1.32,1.32,0,0,0-1,.46,2.29,2.29,0,0,1-3.3,0,1.32,1.32,0,0,0-2,0,2.32,2.32,0,0,1-1.66.7A2.24,2.24,0,0,1,1,3.6a.48.48,0,0,1-.4-.48.49.49,0,0,1,.49-.49h0l.11,0a1.66,1.66,0,0,0,.32,0,1.36,1.36,0,0,0,1-.46,2.29,2.29,0,0,1,3.3,0,1.32,1.32,0,0,0,2,0,2.31,2.31,0,0,1,3.31,0,1.32,1.32,0,0,0,2,0,2.32,2.32,0,0,1,1.65-.7,2.28,2.28,0,0,1,1.65.7,1.36,1.36,0,0,0,1,.46,1.46,1.46,0,0,0,.38-.05.49.49,0,0,1,.61.32.5.5,0,0,1-.33.62A2.29,2.29,0,0,1,17.42,3.66Z"/></g></g></svg>