<svg xmlns="http://www.w3.org/2000/svg" viewBox="0 0 17.1 17.1"><defs><style>.cls-1{fill:#2c4c51;}</style></defs><g id="Capa_2" data-name="Capa 2"><g id="Elementos"><path class="cls-1" d="M9.18,4.6a1.94,1.94,0,0,1,1,.26,1.84,1.84,0,0,1,.69.72,2.17,2.17,0,0,1,.26,1.07,2.22,2.22,0,0,1-.26,1.06,1.92,1.92,0,0,1-.69.75,1.86,1.86,0,0,1-1,.28H7l0-.09v2.82a.29.29,0,0,1-.09.21.33.33,0,0,1-.22.09.3.3,0,0,1-.23-.09.32.32,0,0,1-.08-.21V4.9a.29.29,0,0,1,.09-.21.29.29,0,0,1,.22-.09Zm0,3.54a1.18,1.18,0,0,0,.7-.2,1.28,1.28,0,0,0,.46-.54,1.59,1.59,0,0,0,.17-.75,1.55,1.55,0,0,0-.17-.76A1.27,1.27,0,0,0,9.18,5.2H7l0-.08V8.21L7,8.14Z"/><path class="cls-1" d="M8.55,17.1A8.55,8.55,0,1,1,17.1,8.55,8.57,8.57,0,0,1,8.55,17.1ZM8.55,1a7.51,7.51,0,1,0,7.51,7.51A7.52,7.52,0,0,0,8.55,1Z"/></g></g></svg>