<svg xmlns="http://www.w3.org/2000/svg" viewBox="0 0 17.1 17.1"><defs><style>.cls-1{fill:#2c4c51;}</style></defs><g id="Capa_2" data-name="Capa 2"><g id="Elementos"><path class="cls-1" d="M8.61,5.4,6.12,11.58a.37.37,0,0,1-.11.15.26.26,0,0,1-.17,0,.29.29,0,0,1-.22-.07.26.26,0,0,1-.07-.19.2.2,0,0,1,0-.13l2.7-6.62a.34.34,0,0,1,.12-.16.34.34,0,0,1,.18,0,.36.36,0,0,1,.19,0,.44.44,0,0,1,.12.15l2.69,6.59a.3.3,0,0,1,0,.13.28.28,0,0,1-.09.22.31.31,0,0,1-.21.07.27.27,0,0,1-.18,0,.44.44,0,0,1-.12-.15L8.43,5.35ZM6.71,9.7,7,9.1h3.18l.12.6Z"/><path class="cls-1" d="M8.55,17.1A8.55,8.55,0,1,1,17.1,8.55,8.57,8.57,0,0,1,8.55,17.1ZM8.55,1a7.51,7.51,0,1,0,7.51,7.51A7.52,7.52,0,0,0,8.55,1Z"/></g></g></svg>