<svg xmlns="http://www.w3.org/2000/svg" viewBox="0 0 17.1 17.1"><defs><style>.cls-1{fill:#2c4c51;}</style></defs><g id="Capa_2" data-name="Capa 2"><g id="Elementos"><path class="cls-1" d="M8.55,16.44a7.9,7.9,0,1,1,7.89-7.89A7.91,7.91,0,0,1,8.55,16.44Zm0-14.9a7,7,0,1,0,7,7A7,7,0,0,0,8.55,1.54Z"/><path class="cls-1" d="M.44,17.1A.43.43,0,0,1,.13,17a.44.44,0,0,1,0-.62L16.35.13A.44.44,0,1,1,17,.75L.75,17A.42.42,0,0,1,.44,17.1Z"/><path class="cls-1" d="M16.66,17.1a.42.42,0,0,1-.31-.13L.13.75A.44.44,0,0,1,.75.13L17,16.35A.44.44,0,0,1,17,17,.43.43,0,0,1,16.66,17.1Z"/></g></g></svg>