<svg xmlns="http://www.w3.org/2000/svg" viewBox="0 0 16.15 17.61"><defs><style>.cls-1{fill:#2c4c51;}</style></defs><g id="Capa_2" data-name="Capa 2"><g id="Elementos"><path class="cls-1" d="M8.67,4.34a1.81,1.81,0,0,1,1,.25,1.73,1.73,0,0,1,.66.68,2.07,2.07,0,0,1,.24,1,2.08,2.08,0,0,1-.24,1A1.81,1.81,0,0,1,9.63,8a1.73,1.73,0,0,1-1,.26h-2l0-.08v2.66a.27.27,0,0,1-.09.2.28.28,0,0,1-.2.09A.27.27,0,0,1,6.16,11a.3.3,0,0,1-.08-.2V4.63a.27.27,0,0,1,.09-.2.26.26,0,0,1,.21-.09Zm0,3.35a1.14,1.14,0,0,0,.66-.19A1.22,1.22,0,0,0,9.77,7a1.54,1.54,0,0,0,.16-.71,1.46,1.46,0,0,0-.16-.71,1.14,1.14,0,0,0-.44-.48,1.21,1.21,0,0,0-.66-.18h-2l0-.07V7.75l-.06-.06Z"/><path class="cls-1" d="M8.07,16.15a8.08,8.08,0,1,1,8.08-8.08A8.08,8.08,0,0,1,8.07,16.15ZM8.07,1a7.1,7.1,0,1,0,7.1,7.09A7.1,7.1,0,0,0,8.07,1Z"/><path class="cls-1" d="M15.66,17.61H.49a.5.5,0,0,1,0-1H15.66a.5.5,0,0,1,0,1Z"/></g></g></svg>