<svg xmlns="http://www.w3.org/2000/svg" viewBox="0 0 16.15 17.61"><defs><style>.cls-1{fill:#2c4c51;}</style></defs><g id="Capa_2" data-name="Capa 2"><g id="Elementos"><path class="cls-1" d="M15.66,17.61H.49a.5.5,0,0,1,0-1H15.66a.5.5,0,0,1,0,1Z"/><path class="cls-1" d="M12.19,4.32a.32.32,0,0,1,.21.08.23.23,0,0,1,.1.21.69.69,0,0,1,0,.13l-2.14,6.2a.23.23,0,0,1-.11.13.3.3,0,0,1-.15,0,.37.37,0,0,1-.18,0,.26.26,0,0,1-.11-.14L8.07,6.69l.08,0L6.44,10.94a.33.33,0,0,1-.12.14.35.35,0,0,1-.17,0,.33.33,0,0,1-.16,0,.26.26,0,0,1-.1-.13L3.75,4.74a.27.27,0,0,1,0-.12.26.26,0,0,1,.1-.22.4.4,0,0,1,.22-.08.34.34,0,0,1,.17,0,.26.26,0,0,1,.11.14l1.94,5.67h-.1L7.85,6A.3.3,0,0,1,8,5.85a.26.26,0,0,1,.17,0,.25.25,0,0,1,.17,0A.26.26,0,0,1,8.4,6l1.66,4.18-.1,0,1.94-5.7A.22.22,0,0,1,12,4.37.35.35,0,0,1,12.19,4.32Z"/><path class="cls-1" d="M8.07,16.15a8.08,8.08,0,1,1,8.08-8.08A8.08,8.08,0,0,1,8.07,16.15ZM8.07,1a7.1,7.1,0,1,0,7.1,7.09A7.1,7.1,0,0,0,8.07,1Z"/></g></g></svg>