<svg xmlns="http://www.w3.org/2000/svg" viewBox="0 0 17.1 17.1"><defs><style>.cls-1{fill:#2c4c51;}</style></defs><g id="Capa_2" data-name="Capa 2"><g id="Elementos"><path class="cls-1" d="M12.91,4.58a.36.36,0,0,1,.22.07.26.26,0,0,1,.1.23.34.34,0,0,1,0,.14L11,11.58a.26.26,0,0,1-.11.14.28.28,0,0,1-.17,0,.34.34,0,0,1-.18,0,.28.28,0,0,1-.13-.15L8.55,7.09l.08,0L6.82,11.58a.28.28,0,0,1-.13.15.39.39,0,0,1-.18,0,.32.32,0,0,1-.28-.19L4,5a.32.32,0,0,1,0-.13.25.25,0,0,1,.11-.23.33.33,0,0,1,.22-.08.32.32,0,0,1,.19,0,.26.26,0,0,1,.11.14l2.06,6H6.53L8.31,6.34a.33.33,0,0,1,.11-.15.22.22,0,0,1,.18,0,.22.22,0,0,1,.18,0,.44.44,0,0,1,.12.15l1.75,4.43-.1,0,2-6a.26.26,0,0,1,.11-.14A.33.33,0,0,1,12.91,4.58Z"/><path class="cls-1" d="M8.55,17.1A8.55,8.55,0,1,1,17.1,8.55,8.57,8.57,0,0,1,8.55,17.1ZM8.55,1a7.51,7.51,0,1,0,7.51,7.51A7.52,7.52,0,0,0,8.55,1Z"/></g></g></svg>