<svg xmlns="http://www.w3.org/2000/svg" viewBox="0 0 17.1 18.64"><defs><style>.cls-1{fill:#2c4c51;}</style></defs><g id="Capa_2" data-name="Capa 2"><g id="Elementos"><path class="cls-1" d="M6.94,11.77a.3.3,0,0,1-.23-.09.29.29,0,0,1-.09-.21V4.9a.29.29,0,0,1,.09-.21.29.29,0,0,1,.22-.09h3.73a.35.35,0,0,1,.22.08A.31.31,0,0,1,11,4.9a.26.26,0,0,1-.09.21.31.31,0,0,1-.22.09H7.21l0-.06V7.87l0-.09h3a.32.32,0,0,1,.22.08.29.29,0,0,1,.09.22.26.26,0,0,1-.09.21.33.33,0,0,1-.22.09h-3l.07-.09v3.18a.29.29,0,0,1-.09.21A.29.29,0,0,1,6.94,11.77Z"/><path class="cls-1" d="M8.55,17.1A8.55,8.55,0,1,1,17.1,8.55,8.57,8.57,0,0,1,8.55,17.1ZM8.55,1a7.51,7.51,0,1,0,7.51,7.51A7.52,7.52,0,0,0,8.55,1Z"/><path class="cls-1" d="M16.58,18.64H.52A.52.52,0,0,1,0,18.12a.52.52,0,0,1,.52-.52H16.58a.52.52,0,0,1,.52.52A.52.52,0,0,1,16.58,18.64Z"/></g></g></svg>