<svg xmlns="http://www.w3.org/2000/svg" viewBox="0 0 49.78 49.79"><defs><style>.cls-1{fill:#2c4c51;}.cls-2{fill:#fff;fill-rule:evenodd;}</style></defs><g id="Capa_2" data-name="Capa 2"><g id="Elementos"><circle class="cls-1" cx="24.89" cy="24.89" r="24.89" transform="translate(-9.27 16.38) rotate(-31)"/><path class="cls-2" d="M17.92,21.87H35l.07.58,1.13,9.11.09.74H9.77v-.66A12.33,12.33,0,0,1,11.29,25c1.21-1.89,3.25-3.15,6.63-3.15Zm15.94,1.32H17.92c-2.87,0-4.58,1-5.56,2.56A10.34,10.34,0,0,0,11.07,31H34.83Z"/><path class="cls-2" d="M15,16.64a.66.66,0,0,1,0-1.32h18.7a.65.65,0,0,1,.64.59l1.86,15.65a.65.65,0,0,1-.56.74.64.64,0,0,1-.71-.58l-1.8-15.08Z"/></g></g></svg>