<svg xmlns="http://www.w3.org/2000/svg" viewBox="0 0 17.1 10.96"><defs><style>.cls-1{fill:#fff;fill-rule:evenodd;}</style></defs><g id="Capa_2" data-name="Capa 2"><g id="Elementos"><path class="cls-1" d="M7.11,8.76A1.17,1.17,0,1,0,6,7.59,1.16,1.16,0,0,0,7.11,8.76Z"/><path class="cls-1" d="M10.32,8.76a1.17,1.17,0,0,0,0-2.33,1.17,1.17,0,0,0,0,2.33Z"/><path class="cls-1" d="M5.25,4.23h11l0,.37L17,10.48l.06.48H0v-.43A8,8,0,0,1,1,6.26a4.65,4.65,0,0,1,4.27-2Zm10.29.85H5.25A3.88,3.88,0,0,0,1.67,6.73a6.57,6.57,0,0,0-.83,3.38H16.16Z"/><path class="cls-1" d="M3.36.85A.41.41,0,0,1,3,.43.42.42,0,0,1,3.36,0H15.42a.42.42,0,0,1,.42.39L17,10.48a.41.41,0,1,1-.82.1L15.06.85Z"/></g></g></svg>