<svg xmlns="http://www.w3.org/2000/svg" viewBox="0 0 19.74 20.06"><defs><style>.cls-1{fill:#fff;fill-rule:evenodd;}</style></defs><g id="Capa_2" data-name="Capa 2"><g id="Elementos"><path class="cls-1" d="M6.06,4.88H18.77l.05.43.85,6.78.07.56H0v-.49A9.15,9.15,0,0,1,1.13,7.23C2,5.82,3.55,4.88,6.06,4.88Zm11.87,1H6.06c-2.14,0-3.4.76-4.13,1.9a7.72,7.72,0,0,0-1,3.9H18.65Z"/><path class="cls-1" d="M3.88,1a.49.49,0,0,1,0-1H17.8a.49.49,0,0,1,.48.45L19.67,12.1a.48.48,0,1,1-1,.12L17.38,1Z"/><path class="cls-1" d="M5.18,19.77a.48.48,0,0,1-.64.25.51.51,0,0,1-.24-.65l3.21-7.32a.46.46,0,0,1,.63-.24.49.49,0,0,1,.24.64Z"/><path class="cls-1" d="M15.64,19.37a.5.5,0,0,1-.24.65.47.47,0,0,1-.63-.25l-3.21-7.32a.5.5,0,0,1,.24-.64.46.46,0,0,1,.63.24Z"/></g></g></svg>