<svg xmlns="http://www.w3.org/2000/svg" viewBox="0 0 25.03 15.04"><defs><style>.cls-1{fill:#fff;fill-rule:evenodd;}</style></defs><g id="Capa_2" data-name="Capa 2"><g id="Elementos"><path class="cls-1" d="M8.06,5H21.17l.06.44.87,7,.07.57H1.81v-.51A9.5,9.5,0,0,1,3,7.46C3.9,6,5.47,5,8.06,5Zm12.25,1H8.06c-2.2,0-3.52.79-4.27,2a7.92,7.92,0,0,0-1,4H21.05Z"/><path class="cls-1" d="M5.81,1a.49.49,0,0,1-.49-.5A.5.5,0,0,1,5.81,0H20.17a.51.51,0,0,1,.5.46l1.43,12a.51.51,0,0,1-.43.57.5.5,0,0,1-.55-.45L19.74,1Z"/><path class="cls-1" d="M.7,15a.48.48,0,0,1-.65-.25.5.5,0,0,1,.24-.67l24-11.51a.48.48,0,0,1,.65.25.5.5,0,0,1-.24.67Z"/><path class="cls-1" d="M24.74,14.07a.5.5,0,0,1,.24.67.48.48,0,0,1-.65.25L.29,3.48a.5.5,0,0,1-.24-.67A.48.48,0,0,1,.7,2.56Z"/></g></g></svg>