<svg xmlns="http://www.w3.org/2000/svg" viewBox="0 0 20.45 13.1"><defs><style>.cls-1{fill:#fff;fill-rule:evenodd;}</style></defs><g id="Capa_2" data-name="Capa 2"><g id="Elementos"><path class="cls-1" d="M10.19,10.71A1.39,1.39,0,1,0,8.83,9.32,1.38,1.38,0,0,0,10.19,10.71Z"/><path class="cls-1" d="M6.28,5.06H19.44l.06.44.87,7,.08.57H0v-.51a9.5,9.5,0,0,1,1.17-5.1C2.1,6,3.68,5.06,6.28,5.06Zm12.3,1H6.28c-2.21,0-3.53.78-4.29,2a8,8,0,0,0-1,4H19.32Z"/><path class="cls-1" d="M4,1A.51.51,0,0,1,4,0H18.44a.51.51,0,0,1,.5.46l1.44,12.07a.51.51,0,0,1-.44.57.51.51,0,0,1-.55-.45L18,1Z"/></g></g></svg>