<svg xmlns="http://www.w3.org/2000/svg" viewBox="0 0 17.1 5.77"><defs><style>.cls-1{fill:#fff;}</style></defs><g id="Capa_2" data-name="Capa 2"><g id="Elementos"><path class="cls-1" d="M8.61,5.77A6.18,6.18,0,0,1,5,4.07a.44.44,0,0,1-.12-.44c0-.13.9-3,2.89-3.54S12,1.62,12.07,1.71a.42.42,0,0,1,.12.44c0,.12-.9,3-2.89,3.53A2.34,2.34,0,0,1,8.61,5.77ZM5.84,3.61c.54.45,2,1.55,3.23,1.22s1.95-2,2.19-2.67C10.72,1.71,9.25.61,8,.94S6.08,3,5.84,3.61Z"/><path class="cls-1" d="M16.66,5.77H13.79A4.87,4.87,0,0,1,10.57,4.2a.44.44,0,1,1,.62-.62A4,4,0,0,0,13.8,4.89h2.42v-4H14.05a2.08,2.08,0,0,0-1.31.43,1.77,1.77,0,0,0-.55.84.44.44,0,1,1-.84-.25A2.57,2.57,0,0,1,12.18.64,2.83,2.83,0,0,1,14.05,0h2.61a.44.44,0,0,1,.44.44V5.33A.44.44,0,0,1,16.66,5.77Z"/><path class="cls-1" d="M3.05,5.77H.44A.44.44,0,0,1,0,5.33V.44A.44.44,0,0,1,.44,0H3.3A4.92,4.92,0,0,1,6.53,1.57a.45.45,0,0,1,0,.63.44.44,0,0,1-.62,0A4.07,4.07,0,0,0,3.3.88H.88v4H3.05a2,2,0,0,0,1.31-.43,1.77,1.77,0,0,0,.55-.84.43.43,0,0,1,.55-.29.44.44,0,0,1,.29.55,2.61,2.61,0,0,1-.83,1.25A2.85,2.85,0,0,1,3.05,5.77Z"/></g></g></svg>