<svg xmlns="http://www.w3.org/2000/svg" viewBox="0 0 17.99 18.47"><defs><style>.cls-1{fill:#fff;fill-rule:evenodd;}</style></defs><g id="Capa_2" data-name="Capa 2"><g id="Elementos"><path class="cls-1" d="M.55,0H18V18.47H0V0ZM16.89,1.13H1.1v16.2H16.89Z"/><path class="cls-1" d="M9,.88a7.87,7.87,0,0,1,5.66,2.41,8.38,8.38,0,0,1,0,11.64,7.86,7.86,0,0,1-11.33,0,8.38,8.38,0,0,1,0-11.64A7.88,7.88,0,0,1,9,.88ZM14,4A6.92,6.92,0,0,0,4,4,7.36,7.36,0,0,0,4,14.21a6.9,6.9,0,0,0,10,0A7.36,7.36,0,0,0,14,4Z"/></g></g></svg>