<svg xmlns="http://www.w3.org/2000/svg" viewBox="0 0 17.1 17.1"><defs><style>.cls-1{fill:#fff;}</style></defs><g id="Capa_2" data-name="Capa 2"><g id="Elementos"><path class="cls-1" d="M16.66,17.1H.44A.44.44,0,0,1,0,16.66V.44A.44.44,0,0,1,.44,0H16.66a.44.44,0,0,1,.44.44V16.66A.44.44,0,0,1,16.66,17.1ZM.88,16.22H16.22V.88H.88Z"/><path class="cls-1" d="M8.55,15a.44.44,0,0,1-.44-.44v-12a.44.44,0,0,1,.88,0v12A.44.44,0,0,1,8.55,15Z"/><path class="cls-1" d="M.44,7.25a.48.48,0,0,1-.31-.13.44.44,0,0,1,0-.62L6.5.13a.44.44,0,1,1,.62.62L.75,7.12A.46.46,0,0,1,.44,7.25Z"/></g></g></svg>