<svg xmlns="http://www.w3.org/2000/svg" viewBox="0 0 17.1 17.1"><defs><style>.cls-1{fill:#fff;}</style></defs><g id="Capa_2" data-name="Capa 2"><g id="Elementos"><path class="cls-1" d="M16.8,17.1H.3a.29.29,0,0,1-.3-.3V.3A.29.29,0,0,1,.3,0H16.8a.29.29,0,0,1,.3.3V16.8A.29.29,0,0,1,16.8,17.1ZM.6,16.5H16.5V.6H.6Z"/><circle class="cls-1" cx="8.55" cy="8.55" r="6.92"/><path class="cls-1" d="M8.55,15.77a7.22,7.22,0,1,1,7.22-7.22A7.23,7.23,0,0,1,8.55,15.77Zm0-13.84a6.62,6.62,0,1,0,6.62,6.62A6.63,6.63,0,0,0,8.55,1.93Z"/></g></g></svg>