<svg xmlns="http://www.w3.org/2000/svg" viewBox="0 0 17.1 12.83"><defs><style>.cls-1{fill:#fff;fill-rule:evenodd;}</style></defs><g id="Capa_2" data-name="Capa 2"><g id="Elementos"><path class="cls-1" d="M2.74,0H14.86V12.83H2.35V0ZM14.09.79h-11V12.05h11Z"/><path class="cls-1" d="M8.61.61a5.45,5.45,0,0,1,3.93,1.68,5.8,5.8,0,0,1,0,8.08,5.45,5.45,0,0,1-7.87,0,5.8,5.8,0,0,1,0-8.08A5.45,5.45,0,0,1,8.61.61Zm3.45,2.17a4.8,4.8,0,0,0-6.91,0,5.12,5.12,0,0,0,0,7.1,4.8,4.8,0,0,0,6.91,0,5.12,5.12,0,0,0,0-7.1Z"/><path class="cls-1" d="M.79,10.23c-.33.16-.68.14-.77-.06s.11-.49.45-.65L16.3,1.94c.34-.16.69-.13.78.07s-.11.48-.45.64Z"/><path class="cls-1" d="M16.3,10.23c.34.16.69.14.78-.06s-.11-.49-.45-.65L.79,1.94C.46,1.78.11,1.81,0,2s.11.48.45.64Z"/></g></g></svg>