<svg xmlns="http://www.w3.org/2000/svg" viewBox="0 0 17.99 18.47"><defs><style>.cls-1{fill:#fff;fill-rule:evenodd;}</style></defs><g id="Capa_2" data-name="Capa 2"><g id="Elementos"><path class="cls-1" d="M.55,0H18V18.47H0V0ZM16.89,1.13H1.1v16.2H16.89Z"/><path class="cls-1" d="M18,.57a5,5,0,0,1-2.74,4.15A12.11,12.11,0,0,1,9,6.32a12.12,12.12,0,0,1-6.26-1.6A5,5,0,0,1,0,.57V0H18V.57ZM14.68,3.75a4.38,4.38,0,0,0,2.15-2.62H1.17A4.33,4.33,0,0,0,3.31,3.75,11,11,0,0,0,9,5.19,11,11,0,0,0,14.68,3.75Z"/></g></g></svg>