<svg xmlns="http://www.w3.org/2000/svg" viewBox="0 0 19 19"><defs><style>.cls-1{fill:#fff;}</style></defs><g id="Capa_2" data-name="Capa 2"><g id="Elementos"><path class="cls-1" d="M.49,5.71a.54.54,0,0,1-.35-.14.5.5,0,0,1,0-.7L4.87.14a.5.5,0,0,1,.7,0,.5.5,0,0,1,0,.7L.84,5.57A.52.52,0,0,1,.49,5.71Z"/><path class="cls-1" d="M.49,10.44a.54.54,0,0,1-.35-.14.5.5,0,0,1,0-.7L9.6.14a.5.5,0,0,1,.7,0,.5.5,0,0,1,0,.7L.84,10.3A.52.52,0,0,1,.49,10.44Z"/><path class="cls-1" d="M18.51,19H.49A.49.49,0,0,1,0,18.51V.49A.49.49,0,0,1,.49,0h18A.49.49,0,0,1,19,.49v18A.49.49,0,0,1,18.51,19ZM1,18H18V1H1Z"/></g></g></svg>