<svg xmlns="http://www.w3.org/2000/svg" viewBox="0 0 19 19"><defs><style>.cls-1{fill:#fff;}</style></defs><g id="Capa_2" data-name="Capa 2"><g id="Elementos"><path class="cls-1" d="M18.51,19H.49A.49.49,0,0,1,0,18.51V.49A.49.49,0,0,1,.49,0h18A.49.49,0,0,1,19,.49v18A.49.49,0,0,1,18.51,19ZM1,18H18V1H1Z"/><path class="cls-1" d="M9.5,17.55a8.05,8.05,0,1,1,8.05-8A8.06,8.06,0,0,1,9.5,17.55Zm0-15.12A7.07,7.07,0,1,0,16.57,9.5,7.08,7.08,0,0,0,9.5,2.43Z"/><circle class="cls-1" cx="9.5" cy="9.5" r="0.79"/></g></g></svg>