<svg xmlns="http://www.w3.org/2000/svg" viewBox="0 0 17.1 19.76"><defs><style>.cls-1{fill:#fff;}</style></defs><g id="Capa_2" data-name="Capa 2"><g id="Elementos"><path class="cls-1" d="M16.8,19.76H.3a.29.29,0,0,1-.3-.3.3.3,0,0,1,.3-.3H16.8a.3.3,0,0,1,.3.3A.29.29,0,0,1,16.8,19.76Z"/><path class="cls-1" d="M16.8,18.43H.3a.29.29,0,0,1-.3-.3.3.3,0,0,1,.3-.3H16.8a.3.3,0,0,1,.3.3A.29.29,0,0,1,16.8,18.43Z"/><path class="cls-1" d="M16.8,17.1H.3a.29.29,0,0,1-.3-.3V.3A.29.29,0,0,1,.3,0H16.8a.29.29,0,0,1,.3.3V16.8A.29.29,0,0,1,16.8,17.1ZM.6,16.5H16.5V.6H.6Z"/><path class="cls-1" d="M8.55,15.51a7,7,0,1,1,7-7A7,7,0,0,1,8.55,15.51Zm0-13.33a6.37,6.37,0,1,0,6.36,6.37A6.38,6.38,0,0,0,8.55,2.18Z"/></g></g></svg>