<svg xmlns="http://www.w3.org/2000/svg" viewBox="0 0 17.1 17.1"><defs><style>.cls-1{fill:#fff;}</style></defs><g id="Capa_2" data-name="Capa 2"><g id="Elementos"><path class="cls-1" d="M16.66,17.1H.44A.44.44,0,0,1,0,16.66V.44A.44.44,0,0,1,.44,0H16.66a.44.44,0,0,1,.44.44V16.66A.44.44,0,0,1,16.66,17.1ZM.88,16.22H16.22V.88H.88Z"/><path class="cls-1" d="M8.55,15.79a7.24,7.24,0,1,1,7.24-7.24A7.25,7.25,0,0,1,8.55,15.79Zm0-13.6a6.36,6.36,0,1,0,6.36,6.36A6.36,6.36,0,0,0,8.55,2.19Z"/><circle class="cls-1" cx="6.08" cy="8.55" r="0.71"/><circle class="cls-1" cx="8.55" cy="8.55" r="0.71"/><circle class="cls-1" cx="11.02" cy="8.55" r="0.71"/></g></g></svg>