<svg xmlns="http://www.w3.org/2000/svg" viewBox="0 0 25.74 16.75"><defs><style>.cls-1{fill:#fff;fill-rule:evenodd;}</style></defs><g id="Capa_2" data-name="Capa 2"><g id="Elementos"><path class="cls-1" d="M8.22,7.35l-2-2.29H.86v6.63H4.42L6.84,8.92,8.22,7.35Zm-1.5-3,2.4,2.73.25.29-.25.3L7.48,9.51,4.92,12.43l-.12.14H0V4.18H6.59Z"/><path class="cls-1" d="M21.2,5.06,17.29,9.52l1.9,2.17h5.69V5.06ZM16.39,9.23l4.3-4.9.13-.15h4.92v8.39H18.81l-.13-.14L16.39,9.82l-.26-.3Z"/><path class="cls-1" d="M17.71,7.72,15.37,5.06h-4L9.12,7.65,7.74,9.22,9.9,11.69h4.33l2.16-2.46,1.32-1.51ZM15.88,4.33l2.72,3.1.26.29L18.6,8,17,9.82l-2.29,2.61-.13.14H9.52l-.13-.14L6.84,9.51l-.26-.29.26-.3L8.48,7.06l2.39-2.73L11,4.18h4.76Z"/><path class="cls-1" d="M6.69,16.59a.42.42,0,0,1-.61.06A.45.45,0,0,1,6,16L18.76.16a.42.42,0,0,1,.6-.06.45.45,0,0,1,.06.62Z"/><path class="cls-1" d="M19.42,16a.45.45,0,0,1-.06.62.41.41,0,0,1-.6-.06L6,.72A.45.45,0,0,1,6.08.1a.43.43,0,0,1,.61.06Z"/></g></g></svg>