<svg class="rotor_img" xmlns="http://www.w3.org/2000/svg" viewBox="0 0 789.94 789.94">
	<defs>
								<style></style>
							</defs>
    <g id="Capa_2" data-name="Capa 2">
        <g id="Elementos">
            <g class="g_etapa g_produccion" id="g_produccion">
            	<text class="cls-1" transform="translate(268.42 152.66) rotate(-26.44)">P</text>
            	<text class="cls-1" transform="translate(280.45 146.75) rotate(-23.53)">R</text>
            	<text class="cls-1" transform="translate(293.49 141.14) rotate(-20.4)">O</text>
            	<text class="cls-1" transform="translate(308.47 135.67) rotate(-17.15)">D</text>
            	<text class="cls-1" transform="matrix(0.97, -0.24, 0.24, 0.97, 323, 131.28)">U</text>
            	<text class="cls-1" transform="translate(337.34 127.79) rotate(-11.02)">C</text>
            	<text class="cls-1" transform="translate(351.06 125.19) rotate(-8.11)">C</text>
            	<text class="cls-1" transform="translate(365.15 123.3) rotate(-5.77)">I</text>
            	<text class="cls-1" transform="translate(373.32 122.46) rotate(-3.24)">Ó</text>
            	<text class="cls-1" transform="translate(389.27 121.66) rotate(0.01)">N</text>
            	<text class="cls-1" transform="translate(404.33 121.81) rotate(2.32)"></text>
            	<text class="cls-1" transform="translate(411.32 122.07) rotate(4.65)">D</text>
            	<text class="cls-1" transform="matrix(0.99, 0.13, -0.13, 0.99, 426.47, 123.41)">E</text>
            	<text class="cls-1" transform="matrix(0.99, 0.17, -0.17, 0.99, 438.98, 125.19)"></text>
            	<text class="cls-1" transform="translate(445.9 126.37) rotate(11.72)">F</text>
            	<text class="cls-1" transform="translate(458.1 129) rotate(13.91)">I</text>
            	<text class="cls-1" transform="translate(466.09 130.99) rotate(16.22)">B</text>
            	<text class="cls-1" transform="translate(479.19 134.87) rotate(19.18)">R</text>
            	<text class="cls-1" transform="translate(492.73 139.67) rotate(22.21)">A</text>
            </g>
            <text class="cls-2" transform="translate(505.54 145.02) rotate(24.35)"></text>
            <text class="cls-2" transform="translate(513.04 148.49) rotate(26.07)"></text>
            <text class="cls-2" transform="translate(535.38 160.54) rotate(30.84)"></text>
            <text class="cls-2" transform="translate(556.49 174.51) rotate(36.57)"></text>
            <text class="cls-2" transform="matrix(0.74, 0.67, -0.67, 0.74, 576.25, 190.42)"></text>
            <text class="cls-2" transform="translate(581.46 195.15) rotate(43.37)"></text>
            <text class="cls-2" transform="matrix(0.71, 0.71, -0.71, 0.71, 586.55, 200.01)"></text>
            <text class="cls-2" transform="translate(591.53 205.02) rotate(46.35)"></text>
            <text class="cls-2" transform="matrix(0.67, 0.74, -0.74, 0.67, 596.35, 210.14)"></text>
            <text class="cls-2" transform="translate(601.05 215.38) rotate(49.33)"></text>
            <text class="cls-2" transform="translate(605.62 220.76) rotate(50.81)"></text>
            <g class="g_etapa g_dis" id="g_dis">
            	<text class="cls-3" transform="translate(610.05 226.16) rotate(53.16)">D</text>
            	<text class="cls-3" transform="matrix(0.56, 0.83, -0.83, 0.56, 619.06, 238.43)">I</text>
            	<text class="cls-3" transform="matrix(0.53, 0.85, -0.85, 0.53, 623.7, 245.25)">S</text>
            	<text class="cls-3" transform="translate(630.31 255.88) rotate(60.47)">E</text>
            	<text class="cls-3" transform="translate(636.48 266.87) rotate(63.37)">Ñ</text>
            	<text class="cls-3" transform="matrix(0.4, 0.92, -0.92, 0.4, 643.15, 280.33)">O</text>
            </g>
            <text class="cls-3" transform="translate(649.35 295.07) rotate(69.01)"></text>
            <text class="cls-3" transform="translate(656.92 317.1) rotate(73.87)"></text>
            <text class="cls-3" transform="matrix(0.19, 0.98, -0.98, 0.19, 663.01, 341.71)"></text>
            <text class="cls-3" transform="translate(666.8 366.76) rotate(84.44)"></text>
            <text class="cls-3" transform="matrix(0, 1, -1, 0, 668.27, 392.1)"></text>
            <text class="cls-3" transform="matrix(-0.09, 1, -1, -0.09, 667.38, 417.41)"></text>
            <text class="cls-3" transform="translate(664.15 442.56) rotate(100.42)"></text>
            <g class="g_etapa g_manufactura" id="g_manufactura">
            	<text class="cls-3" transform="matrix(-0.23, 0.97, -0.97, -0.23, 662.94, 449.46)">M</text>
            	<text class="cls-3" transform="translate(658.71 467.01) rotate(106.49)">A</text>
            	<text class="cls-3" transform="translate(654.56 480.77) rotate(109.6)">N</text>
            	<text class="cls-3" transform="matrix(-0.39, 0.92, -0.92, -0.39, 649.43, 494.9)">U</text>
            	<text class="cls-3" transform="translate(643.64 508.45) rotate(115.58)">F</text>
            	<text class="cls-3" transform="translate(638.66 518.81) rotate(118.18)">A</text>
            	<text class="cls-3" transform="translate(631.99 531.06) rotate(120.84)">C</text>
            	<text class="cls-3" transform="matrix(-0.56, 0.83, -0.83, -0.56, 624.61, 543.19)">T</text>
            	<text class="cls-3" transform="translate(617.52 553.68) rotate(126.65)">U</text>
            	<text class="cls-3" transform="translate(608.67 565.44) rotate(129.69)">R</text>
            	<text class="cls-3" transform="matrix(-0.68, 0.73, -0.73, -0.68, 599.43, 576.44)">A</text>
            </g>
            <text class="cls-3" transform="translate(589.91 586.57) rotate(134.86)"></text>
            <text class="cls-3" transform="translate(580.56 595.66) rotate(137.62)"></text>
            <text class="cls-3" transform="translate(561.17 611.99) rotate(142.98)"></text>
            <text class="cls-3" transform="matrix(-0.85, 0.53, -0.53, -0.85, 540.34, 626.45)"></text>
            <text class="cls-3" transform="matrix(-0.9, 0.44, -0.44, -0.9, 518.25, 638.91)"></text>
            <text class="cls-3" transform="matrix(-0.93, 0.36, -0.36, -0.93, 495.11, 649.26)"></text>
            <text class="cls-3" transform="translate(471.12 657.43) rotate(164.25)"></text>
            <text class="cls-3" transform="matrix(-0.97, 0.25, -0.25, -0.97, 464.33, 659.3)"></text>
            <text class="cls-3" transform="matrix(-0.98, 0.22, -0.22, -0.98, 457.49, 661)"></text>
            <g class="g_etapa g_logistica" id="g_logistica">
            	<text class="cls-3" transform="translate(450.64 662.55) rotate(169.2)">L</text>
            	<text class="cls-3" transform="translate(439.03 664.75) rotate(172.05)">O</text>
            	<text class="cls-3" transform="translate(423.21 666.86) rotate(175.26)">G</text>
            	<text class="cls-3" transform="translate(408.38 667.95) rotate(177.67)">Í</text>
            	<text class="cls-3" transform="matrix(-1, 0, 0, -1, 400.14, 668.27)">S</text>
            	<text class="cls-3" transform="matrix(-1, -0.04, 0.04, -1, 387.63, 668.23)">T</text>
            	<text class="cls-3" transform="matrix(-1, -0.08, 0.08, -1, 374.98, 667.58)">I</text>
            	<text class="cls-3" transform="matrix(-0.99, -0.12, 0.12, -0.99, 366.78, 666.91)">C</text>
            	<text class="cls-3" transform="matrix(-0.98, -0.17, 0.17, -0.98, 352.69, 665.09)">A</text>
            </g>
            <text class="cls-3" transform="translate(339.05 662.55) rotate(-167.79)"></text>
            <text class="cls-3" transform="translate(320.91 658.1) rotate(-163.84)"></text>
            <text class="cls-3" transform="translate(296.87 650.09) rotate(-158.49)"></text>
            <text class="cls-3" transform="translate(273.66 639.87) rotate(-153.17)"></text>
            <text class="cls-3" transform="matrix(-0.88, -0.47, 0.47, -0.88, 267.4, 636.66)"></text>
            <g class="g_etapa g_uso" id="g_uso">
            	<text class="cls-3" transform="matrix(-0.86, -0.51, 0.51, -0.86, 261.21, 633.35)">U</text>
            	<text class="cls-3" transform="translate(248.57 625.77) rotate(-146.65)">S</text>
            	<text class="cls-3" transform="translate(238.13 618.86) rotate(-143.7)">O</text>
            	<text class="cls-3" transform="translate(225.35 609.28) rotate(-141.3)"></text>
            	<text class="cls-3" transform="matrix(-0.76, -0.65, 0.65, -0.76, 220.32, 605.27)">Y</text>
            	<text class="cls-3" transform="translate(209.66 595.9) rotate(-136.97)"></text>
            	<text class="cls-3" transform="matrix(-0.7, -0.72, 0.72, -0.7, 204.51, 591.17)">M</text>
            	<text class="cls-3" transform="matrix(-0.65, -0.76, 0.76, -0.65, 191.99, 578.14)">A</text>
            	<text class="cls-3" transform="translate(182.64 567.22) rotate(-127.79)">N</text>
            	<text class="cls-3" transform="matrix(-0.57, -0.82, 0.82, -0.57, 173.51, 555.28)">T</text>
            	<text class="cls-3" transform="translate(166.34 544.86) rotate(-122.21)">E</text>
            	<text class="cls-3" transform="translate(159.67 534.19) rotate(-119.31)">N</text>
            	<text class="cls-3" transform="translate(152.42 520.98) rotate(-116.86)">I</text>
            	<text class="cls-3" transform="translate(148.66 513.66) rotate(-114.1)">M</text>
            	<text class="cls-3" transform="translate(141.45 497.07) rotate(-111.35)">I</text>
            	<text class="cls-3" transform="translate(138.47 489.39) rotate(-109.17)">E</text>
            	<text class="cls-3" transform="matrix(-0.28, -0.96, 0.96, -0.28, 134.37, 477.47)">N</text>
            	<text class="cls-3" transform="translate(130.25 462.99) rotate(-103.41)">T</text>
            	<text class="cls-3" transform="translate(127.44 451.1) rotate(-100.51)">O</text>
            </g>
            <text class="cls-3" transform="translate(124.68 435.34) rotate(-98.11)"></text>
            <text class="cls-3" transform="matrix(-0.12, -0.99, 0.99, -0.12, 123.72, 428.35)"></text>
            <text class="cls-3" transform="matrix(-0.09, -1, 1, -0.09, 122.95, 421.34)"></text>
            <text class="cls-3" transform="translate(122.35 414.33) rotate(-93.7)"></text>
            <text class="cls-3" transform="matrix(-0.04, -1, 1, -0.04, 121.94, 407.31)"></text>
            <text class="cls-3" transform="translate(121.71 400.26) rotate(-90.75)"></text>
            <text class="cls-3" transform="translate(121.65 393.21) rotate(-89.28)"></text>
            <text class="cls-3" transform="translate(121.78 386.17) rotate(-87.8)"></text>
            <text class="cls-3" transform="matrix(0.06, -1, 1, 0.06, 122.09, 379.14)"></text>
            <text class="cls-3" transform="translate(122.59 372.12) rotate(-84.84)"></text>
            <text class="cls-3" transform="translate(123.26 365.11) rotate(-83.36)"></text>
            <text class="cls-3" transform="translate(124.12 358.1) rotate(-81.87)"></text>
            <text class="cls-3" transform="translate(125.15 351.13) rotate(-80.38)"></text>
            <text class="cls-3" transform="translate(126.37 344.2) rotate(-78.9)"></text>
            <text class="cls-3" transform="matrix(0.22, -0.98, 0.98, 0.22, 127.77, 337.29)"></text>
            <g class="g_etapa g_nueva" id="g_nueva">
            	<text class="cls-3" transform="matrix(0.25, -0.97, 0.97, 0.25, 129.3, 330.44)">F</text>
            	<text class="cls-3" transform="translate(132.55 318.41) rotate(-73.16)">I</text>
            	<text class="cls-3" transform="matrix(0.33, -0.94, 0.94, 0.33, 134.93, 310.53)">N</text>
            	<text class="cls-3" transform="translate(140.05 296.35) rotate(-68.37)"></text>
            	<text class="cls-3" transform="translate(142.61 289.83) rotate(-66.04)">D</text>
            	<text class="cls-3" transform="matrix(0.45, -0.89, 0.89, 0.45, 148.88, 276.01)">E</text>
            	<text class="cls-3" transform="translate(154.7 264.75) rotate(-61.09)"></text>
            	<text class="cls-3" transform="translate(157.82 259.08) rotate(-59.16)">V</text>
            	<text class="cls-3" transform="translate(165.08 247.2) rotate(-56.76)">I</text>
            	<text class="cls-3" transform="matrix(0.58, -0.81, 0.81, 0.58, 169.59, 240.3)">D</text>
            	<text class="cls-3" transform="translate(178.27 228.34) rotate(-51.33)">A</text>
            </g>
            <path class="cls-4" d="M117,430.36a281.42,281.42,0,0,1,2.69-93.46" />
            <path class="cls-4" d="M259.94,152.86a279,279,0,0,0-51.12,35.72s-13.52,12.59-20.52,20.59" />
            <path class="cls-4" d="M513.05,144.68a279.22,279.22,0,0,1,91.37,69.08" />
            <path class="cls-4" d="M657.7,302.68A280.33,280.33,0,0,1,668.13,445" />
            <path class="cls-4" d="M590.82,593.88A277.78,277.78,0,0,1,460.44,667" />
            <path class="cls-4" d="M325.58,666.52A276.55,276.55,0,0,1,266,644" />
        </g>
    </g>
</svg>
